<svg id="Layer_1" data-name="Layer 1" xmlns="http://www.w3.org/2000/svg" width="472" height="84.53" viewBox="0 0 472 84.53"><title>AMBUSH logo - Brandlogos.net</title><path d="M618.23,342.87h-14.6l-1.77,1.78V374.4l-.51.51h-30l-.52-.51V344.65l-1.77-1.78H554.5l-1.77,1.78v78.68l1.77,1.78h14.6l1.77-1.78v-32l.52-.52h30l.51.52v32l1.77,1.78h14.6l1.77-1.78V344.65Zm-82.91,39.7c-4.88-3.8-11.88-6.38-20.79-7.65-16.67-2.39-19.64-4.79-19.64-10.38a5.1,5.1,0,0,1,2.53-4.83c2.09-1.4,5.49-2.1,10.07-2.1,12.48,0,14.92,3.37,14.92,9.22v.45l1.77,1.77h14.63l1.77-1.77v-.45c0-7.46-2.65-13.68-7.65-18-5.51-4.73-13.67-7.12-24.27-7.12-23.53,0-31.91,11.79-31.91,22.81,0,7.76,2.94,13.85,8.72,18,4.74,3.43,11.53,5.74,20.76,7.06,16,2.28,19.64,4.44,19.64,11.52a7,7,0,0,1-3.64,6.81c-2.53,1.6-6.32,2.41-11.28,2.41-15.15,0-17.2-5.82-17.2-11.51v-.45L492,396.64h-14.6l-1.77,1.77v.45c0,8,2.9,14.74,8.37,19.54,6,5.21,14.67,7.84,25.84,7.84,11.45,0,20.28-2.54,26.25-7.55a22.15,22.15,0,0,0,8-17.55c0-7.83-2.93-14.08-8.69-18.57Zm-69-39.7h-14.6l-1.77,1.78v48.49c0,5.66-1.17,9.95-3.47,12.76-2.46,3-6.2,4.47-11.45,4.47s-9-1.46-11.45-4.47c-2.32-2.82-3.47-7.11-3.47-12.76V344.66l-1.75-1.78H403.71l-1.77,1.78v48.49c0,10.54,2.89,18.79,8.59,24.5s13.95,8.61,24.47,8.61,18.76-2.9,24.47-8.61,8.59-14,8.59-24.5V344.66Zm-119,48.44.51-.51h17.82c3.7,0,6.31.78,8,2.29S376,396.83,376,400s-.77,5.43-2.37,6.94-4.28,2.28-8,2.28H347.81l-.51-.51Zm18.35-16.39H347.83l-.51-.51V359.28l.51-.51h17.82c5.73,0,8.07,2.33,8.07,8.08C373.68,369.85,372.62,374.92,365.65,374.92Zm24.84,14a17.2,17.2,0,0,0-9.37-6.71c6.83-2.61,10.71-9,10.71-17.7,0-7.15-2.62-12.93-7.56-16.73-4.15-3.18-10-4.94-16.36-4.94h-37l-1.77,1.78v78.67l1.77,1.78h39.29c4.57,0,11.12-.88,16.38-5.1,5-4,7.54-10,7.54-17.71,0-5.39-1.22-9.88-3.62-13.35Zm-74.73-46.08h-18l-1.61,1.61-22.51,55.22-22.5-55.22-1.61-1.61h-18l-1.77,1.78v78.68l1.77,1.78h14.6l1.77-1.78V380.95L265.2,423.3l.08.19,1.61,1.61h13.46l1.6-1.61,17.44-42.56v42.39l1.77,1.78h14.6l1.77-1.78V344.65ZM193.52,391.73l-.34.34H174.65l-.34-.34,9.61-25.65Zm-.12-47.24-1.62-1.62H176l-1.62,1.62L148,411.22v12.11l1.77,1.78h11.17l1.62-1.62,5.65-14.69,1.68-.84h28.05l1.68.84,5.65,14.69,1.62,1.62h11.17l1.77-1.78V411.25Z" transform="translate(-148 -341.73)" style="fill-rule:evenodd"/></svg>