<svg xmlns="http://www.w3.org/2000/svg" viewBox="0 0 151.67 92.11"><title>Fendi logo</title><path d="M498.09,465.94c5.06,0,10.12,0,15.17,0,1.83.13,3.68,0,5.51.07-.09,1.64-.06,3.28-.06,4.92-5.11,0-10.22,0-15.33,0,0,2.45,0,4.9,0,7.35,2.87,0,5.74,0,8.6,0,0,1.57,0,3.13,0,4.7-2.87,0-5.74,0-8.61,0,0,6.17,0,12.34,0,18.51q-2.69.06-5.39,0c.06-5.25,0-10.49.07-15.74q0-9.93,0-19.86Z" transform="translate(-436.16 -465.94)" style="fill:#231f20"/><path d="M520.6,466c1.79,0,3.58,0,5.37,0,0,4.73.05,9.47-.06,14.2q0,8.37,0,16.73c0,1.55,0,3.11-.07,4.66-2.9,0-5.79-.09-8.69-.06-4,0-7.94,0-11.9,0,0-1.65.06-3.3,0-4.95,5.1,0,10.2,0,15.31,0,0-2.47,0-4.94,0-7.41H512c0-1.57,0-3.14,0-4.71,2.87,0,5.74,0,8.61,0,0-6.15,0-12.31,0-18.46Z" transform="translate(-436.16 -465.94)" style="fill:#231f20"/><path d="M436.17,517.07q13.57,0,27.13,0c0,2.43,0,4.86,0,7.3H444.13c0,3.05,0,6.11,0,9.16,5.59,0,11.19,0,16.78,0,0,2.42,0,4.85,0,7.27h-16.8q0,8.63,0,17.25-4,0-8,0C436.15,544.39,436.17,530.73,436.17,517.07Z" transform="translate(-436.16 -465.94)" style="fill:#231f20"/><path d="M468.58,558q0-20.49,0-41c9.35,0,18.7,0,28,0,0,2.43,0,4.87,0,7.3-6.75,0-13.5,0-20.25,0,0,2.86,0,5.71,0,8.57,6.2,0,12.4,0,18.59,0,0,2.42,0,4.85,0,7.27q-9.29,0-18.58,0c0,3.51,0,7,0,10.52,7.06,0,14.11,0,21.17,0q0,3.65,0,7.3c-9.65,0-19.31,0-29,0Z" transform="translate(-436.16 -465.94)" style="fill:#231f20"/><path d="M503.53,517.06c2.81,0,5.62,0,8.43,0q7.6,14.28,15.21,28.55,0-14.27,0-28.54c2.48,0,5,0,7.43,0q0,20.49,0,41c-2.65,0-5.3,0-7.95,0q-7.8-14.62-15.64-29.23,0,14.62,0,29.24c-2.5,0-5,0-7.49,0q0-20.49,0-41Z" transform="translate(-436.16 -465.94)" style="fill:#231f20"/><path d="M542.21,517.07c5.79,0,11.57,0,17.36,0a13.91,13.91,0,0,1,8.87,3,16,16,0,0,1,5,8.09,33.36,33.36,0,0,1,1.13,8.56c-.11,4.45-.74,9-2.8,13a14.61,14.61,0,0,1-6.12,6.65,14.25,14.25,0,0,1-6.45,1.58c-5.65,0-11.31,0-17,0,0-13.66,0-27.32,0-41m7.89,7.14q0,13.34,0,26.68h7.55a8.05,8.05,0,0,0,3-.57,8.29,8.29,0,0,0,4-4.14A22.75,22.75,0,0,0,566.36,536c-.09-3.3-.59-6.84-2.77-9.46-1.31-1.62-3.48-2.16-5.47-2.29C555.45,524.19,552.77,524.25,550.1,524.21Z" transform="translate(-436.16 -465.94)" style="fill:#231f20"/><path d="M579.88,558.06q0-20.5,0-41c2.65,0,5.3,0,7.95,0q0,20.48,0,41C585.18,558,582.53,558,579.88,558.06Z" transform="translate(-436.16 -465.94)" style="fill:#231f20"/></svg>