<svg id="Layer_1" data-name="Layer 1" xmlns="http://www.w3.org/2000/svg" width="182.15" height="187.09" viewBox="0 0 182.15 187.09"><title>Gucci logo - Brandlogos.net</title><path d="M313.36,329.55c-5.43,0-20.44-3.39-20.44-19.33s14.29-19.38,20.05-19.38,11.91,1.06,15.48,3.43h0v7.46h0a.64.64,0,1,1-1.27,0c-.08-1.27-3.48-8.9-12-8.73-9.16.18-15.35,7.38-15.35,16.87s6,17.64,15.09,17.38c2.95-.08,6-1,7.51-2.25h0l0-8.26h0c0-2.37-1.44-3.22-2.88-3.22a.68.68,0,1,1,0-1.36H332c.93,0,.93,1.44,0,1.36-1.44,0-2.88.85-2.88,3.22h0v8.48h0c-3.05,2.71-10.35,4.32-15.77,4.32Z" transform="translate(-292.92 -290.46)" style="fill:#231f20;fill-rule:evenodd"/><path d="M397.83,329.55c5.43,0,12.47-2.88,16.2-5.6h0v-7h0c0-.93-.59-1.1-.93.08s-4.66,10.18-13.74,10.43-15-8.14-15-17.64,6.19-16.95,15.35-17.13c8.48-.17,11.87,7.72,12,9,0,.85.93.93.93,0h0v-7.46h0c-3.56-2.37-9.41-3.82-15.18-3.82s-20,3.82-20,19.76,15,19.33,20.44,19.33Z" transform="translate(-292.92 -290.46)" style="fill:#231f20;fill-rule:evenodd"/><path d="M474.06,327.34c-1.44,0-2.88-.85-2.88-3.22h0V295.88h0c0-2.37,1.44-3.22,2.88-3.22s1.36-1.27,0-1.27H461.59c-1.36,0-1.36,1.27,0,1.27s2.88.85,2.88,3.22h0v28.24h0c0,2.37-1.44,3.22-2.88,3.22s-1.36,1.7,0,1.7h12.46c1.36,0,1.36-1.7,0-1.7Z" transform="translate(-292.92 -290.46)" style="fill:#231f20;fill-rule:evenodd"/><path d="M336.55,292.66c1.44,0,2.88.85,2.88,3.22h0v18.53h0c0,8.87,6.94,15.39,15.81,15.39s16.07-6.52,16.07-15.39h0l.17-18.53h0c0-2.37,1.44-3.22,2.88-3.22s1.36-1.27,0-1.27h-8.65c-1.36,0-1.36,1.27,0,1.27s2.88.85,2.88,3.22h0l.31,19.42h0c0,6.26-5.07,12.6-11.33,12.6a11.37,11.37,0,0,1-11.37-11.33h0V295.89h0c0-2.37,1.44-3.22,2.88-3.22s1.36-1.27,0-1.27H336.55c-1.36,0-1.36,1.27,0,1.27Z" transform="translate(-292.92 -290.46)" style="fill:#231f20;fill-rule:evenodd"/><path d="M465.08,422.86a54.71,54.71,0,0,1-78.94,49,54.68,54.68,0,1,1,0-98.06,54.74,54.74,0,0,1,78.95,49Zm-10.79,0A43.92,43.92,0,0,0,397.15,381a54,54,0,0,1,17.47,27.24h0l-11.32,0h0a44,44,0,0,0-17.17-22,44,44,0,0,0-17.14,22h0l-11.32,0h0A54.52,54.52,0,0,1,375.2,381a44.46,44.46,0,0,0-13.31-2A43.89,43.89,0,1,0,375,464.75a54.42,54.42,0,0,1-19.15-37.49h26V438l-12.66.18h0a44,44,0,0,0,16.92,21.3A43.74,43.74,0,0,0,403,438.16h0L390.38,438V427.26h26a54.46,54.46,0,0,1-19.33,37.43,43.92,43.92,0,0,0,57.21-41.83Z" transform="translate(-292.92 -290.46)" style="fill:#231f20;fill-rule:evenodd"/><path d="M439.91,329.55c5.43,0,12.47-2.88,16.2-5.6h0v-7h0c0-.93-.59-1.1-.93.08s-4.66,10.18-13.74,10.43-15-8.14-15-17.64,6.19-16.95,15.35-17.13c8.48-.17,11.87,7.72,12,9,0,.85.93.93.93,0h0v-7.46h0c-3.56-2.37-9.41-3.82-15.18-3.82s-20,3.82-20,19.76,15,19.33,20.44,19.33Z" transform="translate(-292.92 -290.46)" style="fill:#231f20;fill-rule:evenodd"/></svg>