<?xml version="1.0" encoding="UTF-8"?><svg xmlns="http://www.w3.org/2000/svg" viewBox="0 0 1760 2400"><defs><style>.cls-1{fill:#b75441;}.cls-2{fill:#fbf2e5;}.cls-3{fill:#403d3d;}.cls-4{fill:#647ba0;}.cls-5{fill:#ebe0c2;}.cls-6{fill:#a4a590;}.cls-7{fill:#ee7039;}.cls-8{fill:#a67e5d;}.cls-9{fill:#b97551;}.cls-10{fill:#e0dbc2;}.cls-11{fill:#703b2a;}.cls-12{fill:#fcdbbf;}.cls-13{fill:#bdbfa6;}.cls-14{fill:#d0d0bc;}.cls-15{fill:#d85639;}.cls-16{fill:#ebdec2;}.cls-17{fill:#4b3b2f;}.cls-18{fill:#3b3b3b;}.cls-19{fill:#44443c;}.cls-20{fill:#ebc089;}.cls-21{fill:#af7252;}.cls-22{fill:#484140;}.cls-23,.cls-24{fill:#57698c;}.cls-25{fill:#e56540;}.cls-26{fill:#eee8dc;}.cls-27{fill:#f2f2c9;}.cls-28{fill:#4a4f64;}.cls-29{fill:none;stroke:#3b3b3b;stroke-width:4px;}.cls-29,.cls-24,.cls-30{stroke-miterlimit:10;}.cls-31{fill:#e4653f;}.cls-32{fill:#fff;}.cls-33{fill:#c5c7b7;}.cls-34{fill:#ede2cd;}.cls-35{fill:#f87b39;}.cls-24{stroke:#647ba0;stroke-width:2px;}.cls-36{fill:#f7c08f;}.cls-37{fill:#d5a878;}.cls-38{fill:#fdddc6;}.cls-39{fill:#e3643d;}.cls-40{fill:#bf926c;}.cls-41{fill:#efddc9;}.cls-42{fill:#55463c;}.cls-43{fill:#cacab7;}.cls-44{fill:#9c6e4d;}.cls-45{fill:#fcf0de;}.cls-46{fill:#f1c88f;}.cls-47{fill:#bd7c55;}.cls-48{fill:#f0ead2;}.cls-49{fill:#ccc3ac;}.cls-30{stroke:#000;}.cls-30,.cls-50{fill:#3d3c3c;}.cls-51{fill:#ac5e39;}.cls-52{fill:#cfd0bb;}.cls-53{fill:#f5bb8a;}.cls-54{fill:#f3b786;}.cls-55{fill:#ee7239;}.cls-56{fill:#3f3d3c;}.cls-57{fill:#ece5d8;}</style></defs><g id="bg"><rect class="cls-57" width="1760" height="2400"/></g><g id="bench"><polyline class="cls-28" points="580.63 1132.87 599.9 1126.96 704.64 1143.57 712.24 1163.89 698.28 1167.77 696.26 1171.96 707.43 1183.13 716.43 1212.15 704.31 1212.99 642.42 1213.86 569.33 1146.51 580.63 1132.87"/><path class="cls-23" d="M111.51,1320.92c-.66,0-62.69-2.39-62.69-2.39,0,0-23.45,10.82-23.99,11.36s-24.82,9.19-24.82,9.19c0,0,.22,5.25,0,17.73s0,86.47,0,86.47v505.68s93.01,289.51,92.02,288.52,130.91,145.57,130.91,145.57l25.17-.41-.44-137.07-1.75-16.2s.66-40.94.66-41.81,1.31-37.43,1.31-37.43l.66-58.01-1.09-69.83,1.31-37.65s3.06-27.36,3.06-28.02.22-35.46.22-35.46l1.97-46.69-1.75-51.6,1.75-39.62,4.76-52.54,4-52.53s2.41-29.77,2.19-30.43,7.3-31.94,7.3-31.94l3.65-13.37s4.82-12.48,5.25-13.35,7.01-14.89,7.22-15.54,15.98-19.26,15.98-19.26l11.82-10.95s22.11-23.2,104.2-49.25,92.79-27.88,93.44-28.1,90.22-36.47,109.7-42.6c19.48-6.13,55.6-24.3,55.6-24.3l38.09-16.2s8.76-3.06,7.01-10.73,4.38-57.79,4.38-57.79l52.76-57.57-48.82-45.1s-27.58,1.31-28.24,1.31-28.68-5.25-28.68-5.25l-19.05-10.51-7.22.44-68.74-64.8-68.52,48.02-82.39,77.77-252.3,69.78-65.92-7.53Z"/><path class="cls-4" d="M111.51,1320.92s-62.73-2.36-62.69-2.37c-6.66,3.31-17.4,7.83-23.95,11.35-7.38,3.09-17.38,6.49-24.86,9.23-.6,172.71.7,434.98.34,609.73,5.59,17.56,82.09,255.37,85.67,267.08,0,0,4.67,14.87,4.67,14.87,0,0,1.15,3.73,1.15,3.73,0,0,.56,1.88.56,1.88,0,0,.13.48.13.48,0,0,.07.25.07.25,0,0,.03.14.03.14.22-.73-.27,1.68-.12-.19,0,0,.64.72.64.72,0,0,5.2,5.8,5.2,5.8,26.99,30.29,97.4,107.9,125.17,138.92,0,0-.61-.27-.61-.27,0,0,25.17-.43,25.17-.43,0,0-.81.82-.81.82.01.04-.51-137.39-.49-136.98,0-.06-1.76-16.2-1.76-16.25.38-20.41.43-40.81,1.32-61.23,1-23.23.92-53.13,1.26-76.47-.09-9.04-.62-36.34-.73-45.9-.14-5.77-.25-17.55-.37-22.95.1-4.38,1.12-33.13,1.29-38.25-.03.03,3.02-27.48,3.01-27.49.16-7.42.13-19.89.2-27.52.04-15.31,1.46-39.57,2.01-55.17,0,.29-1.74-51.61-1.73-51.6.46-10.2,1.32-31.92,1.95-41.65,2.05-22.96,4.37-46.26,6.02-69.2.45-6.65,4.77-59.83,4.8-64.52,1.15-6.12,2.7-12.26,4.1-18.32,1.51-6.8,4.96-20.3,6.9-26.99,1.72-4.42,3.38-8.79,5.2-13.24.48-.98,6.43-13.74,6.73-14.41.23-.45.53-1.34.84-1.74,1.46-1.99,5.18-6.28,6.76-8.25.04-.04,9.11-10.82,9.14-10.85,3.37-3.01,13.22-12.55,16.73-15.11,18.08-13.4,38.93-22.64,59.66-31.11,12.58-4.93,25.59-9.54,38.45-13.65,31.6-9.87,63.05-20.19,95.09-28.56,4.33-1.76,9.49-3.78,13.68-5.48,35.22-14.06,70.72-28.34,106.54-40.8,20.28-7.8,39.39-18.38,59.49-26.57,0,0,15.02-6.37,15.02-6.37,0,0,7.51-3.19,7.51-3.19l1.85-.78c.59-.27,1.17-.58,1.72-.93,2.18-1.36,4.02-3.41,4.38-5.99.23-1.3-.12-2.61-.3-3.9-.27-2.79-.14-5.5-.05-8.23.93-16.37,2.59-32.8,4.76-48.99,0,0,52.81-57.53,52.81-57.53,0,0,.03.61.03.61.2.16-49.67-45.76-48.51-45.04-8.56.44-19.93.87-28.25,1.29-8.12-1.43-20.5-3.71-28.79-5.29-.04-.03-19.04-10.52-19.08-10.55,0,0,.17.04.17.04,0,0-7.22.43-7.22.43,0,0-.13,0-.13,0-.09-.08-68.68-64.86-68.78-64.95,1.26-.26-68.55,47.96-68.28,47.99.08-.07-82.42,77.74-82.4,77.73-.03,0-252.33,69.74-252.37,69.72,0,0-65.92-7.55-65.92-7.55h0ZM111.51,1320.92s65.92,7.51,65.92,7.51c-.08.04,252.46-69.95,252.22-69.84.02-.01,82.36-77.8,82.38-77.81.13-.04,68.5-48.13,68.62-48.18-.1.03,69.57,65.22,68.7,64.78,0,0,7.22-.44,7.22-.44,0,0,.09,0,.09,0,0,0,.08.04.08.04-.09-.03,19.42,10.66,18.96,10.46,7.69,1.49,20.47,3.78,28.23,5.17,0,0,.39.06.39.06,0,0,.45-.02.45-.02,0,0,.9-.04.9-.04,0,0,1.79-.08,1.79-.08,0,0,3.58-.17,3.58-.17,0,0,7.17-.34,7.17-.34,0,0,14.33-.68,14.33-.68.33-.14,48.85,45.05,49.13,45.15,0,0,.32.29.32.29,0,0-.29.32-.29.32.02-.17-53.28,58.52-52.58,57.34-1.86,16.17-3.74,32.38-4.54,48.63-.09,2.7-.2,5.43.06,8.06.22,1.38.55,2.77.31,4.18-.62,4.45-4.81,7.22-8.64,8.6-11.7,4.99-25.84,10.97-37.42,15.99-17.08,8.38-34.26,16.7-52.2,23.13-7.65,2.46-15.55,5.42-22.99,8.24-27.7,10.55-55.81,21.87-83.36,32.93-1.78.71-4.5,1.82-6.18,2.48-11.02,2.76-21.94,6.06-32.86,9.33-41.37,12.96-83.52,24.43-122.94,42.73-12.24,5.76-24.26,12.1-35.21,20.03-4.45,3-14.06,12.49-18.18,16.18,0,0,.07-.08.07-.08,0,0-9.09,10.81-9.09,10.81-1.63,1.93-5.26,6.3-6.72,8.22-.02.03-.04.06-.01.01,0,0,.03-.11,0-.04,0,0-.05.13-.05.13,0,0-.19.45-.19.45,0,0-.37.81-.37.81-.21.46-6.31,13.56-6.72,14.4-1.75,4.29-3.44,8.74-5.14,13.11.1-.45-3.62,13.4-3.62,13.3-1.88,7.96-4.57,19.16-6.32,27.03,0,0-.72,3.38-.72,3.38-.32,1.22-.16,2.19-.27,3.32-2.79,40.76-6.9,91.17-10.66,131.53-.42,4.38-.44,9.52-.7,13.86,0,0-1.22,27.74-1.22,27.74-.03-.29,1.79,51.57,1.77,51.56-.24,8.13-1.48,33.26-1.75,41.38-.5,11.9-.26,26.01-.44,37.91,0,0-.01,1.72-.01,1.72,0,.57.02,1.13-.06,1.82,0,0-3.02,27.44-3.02,27.44-.13,7.74-1.65,37.39-1.19,45.78.26,17.07.68,44.11.94,61.18-.15,11.86-.37,34.33-.52,45.92,0,0-.09,7.65-.09,7.65-.03,2.55-.04,5.1-.15,7.65-1.07,25.07-1.57,51.69-1.9,76.36,0,0,1.75,16.2,1.75,16.2.01.08.38,137.07.38,137.16,0,0,0,.81,0,.81,0,0-.81.01-.81.01,0,0-25.17.38-25.17.38,0,0-.37,0-.37,0,0,0-.24-.27-.24-.27-31.73-35.18-100.08-111.5-130.78-145.68.09-1.91-.32.44-.15-.38,0,0-.02-.09-.02-.09,0,0-.06-.22-.06-.22,0,0-.13-.46-.13-.46-.19-.78-1.41-4.63-1.69-5.58-7.7-24.55-80.09-251.78-89.86-282.1.88-176.45-.31-435.94.32-610.02,7.51-2.7,17.69-6.22,24.87-9.21,6.68-3.34,17.03-8.15,23.97-11.34,0-.01,62.7,2.41,62.7,2.41h0Z"/><path class="cls-30" d="M512.11,1180.9c-.17,23.75-12.16,23.68-6.14,46.65s10.21,47.6,2.89,70.19c-5.77,17.82-18.15,32.62-30.36,46.82-9.5,11.05-19.07,22.04-28.71,32.96-3.37,3.81-6.74,7.62-10.11,11.43-3.73,4.2-7.45,8.41-11.18,12.61-8.4,9.47-16.8,18.95-25.2,28.42-3.41,3.85-6.86,7.73-11.04,10.74-13.98,10.07-32.92,8.5-50.03,6.43,0,0-118.57-24.4-223.47-75.51l-35.64-21.52-26.23-23.54-8.07-8.07,61.86-17.48,68.59-14.79,30.93-10.76,34.97-14.12,44.38-14.12,49.09-15.47,51.11-9.41,46.4-18.16,11.43,1.34,64.54-24.66Z"/><path class="cls-30" d="M0,1839.36v560.64h222.74l4.65-92.97,3.49-238.02,5.82-128.45,3.49-112.83-1.01-19.12,2.17-36.5-1.88-38.24-7.24-27.67-7.82-21.44s-1.01-7.53.72-13.04,2.17-26.8,2.17-26.8l.43-26.8v-15.36s-3.48-29.26-11.73-54.61-27.38-70.26-48.82-79.53-50.41-18.98-50.41-18.98l-29.99-4.06s-17.82-4.78-28.68.87-36.07,24.19-33.32,63.01.58,31.29.72,31.87,4.49,21.44,4.49,21.44c0,0,10.14,31.43,10.29,31.87s10.72,21.44,10.72,21.44l10.57,25.64,13.62,32.01,8.84,34.62,3.04,25.93s6.52,20.86,6.66,21.29,6.81,19.99,6.81,19.99l-.29,54.76-.87,76.49.43,48.38,2.61,71.42-.14,90.83-1.16,77.79s-1.3,5.21-2.32.58-16.08-75.18-16.08-75.18l-11.73-51.57-23.76-82.71-26.8-68.23-20.44-54.18v-14.78s-.38.23,0-9.81Z"/><path class="cls-24" d="M1760,925.77v1474.23h-17.02s-15.35-42.11-16.95-73.58c-10.08-197.53-18.06-400.94-99.41-581.21-48.49-107.45-121.64-202.59-206-284.94-52.56-51.31-109.72-98.09-158.17-153.3-48.45-55.21-88.55-120.79-98.6-193.55-5.54-40.12-3.51-81.1,37.7-94.26,48.88-15.61,99.1-28.17,148.9-40.46,98.52-24.31,198.61-43.38,299.87-51.29,57.49-4.49,109.69-1.63,109.69-1.63Z"/><path class="cls-50" d="M1711.34,1054.57c-30.66,27.09-49.28,67.34-50.07,108.25-.67,34.81,10.84,68.53,20.68,101.93,25.88,87.9,37.93,179.72,78.05,262.09v38.68s-.95,68.32-4.14,99.6,5.31,61.92,4.14,92.96c-.92,24.55-9.99,48.41-15.26,72.4-14.93,67.9-17.21,137.85-19.44,207.34-.79,24.61-1.54,49.64,4.71,73.46,12.41,47.3,19.45,109.45,29.99,157.2V1020.93c-24.61,5.38-29.76,16.95-48.66,33.64Z"/></g><g id="face_2"><path class="cls-46" d="M478.81,1003.51c49.96,66.33,101.47,133.62,181.5,155.76,15.71,4.35,37.76,8.35,53.88,5.85,29.14-4.51,60.4-19.43,84.3-36.7,98.99-71.49,157.62-68.67,228.49-120.1-13.32-56.15-15.88-114.84-7.48-171.94.55-3.77,1.18-7.6,2.94-10.98,7.49-14.35,28.13-11.93,44.04-14.92,30.36-5.7,50.27-42.76,38.27-71.22-3.19-7.57-8.12-14.26-11.93-21.54-12.08-23.05-12.28-50.43-20.83-75.01-9.13-26.26-29.62-49.87-56.63-56.47-27.01-6.6-59.33,8.25-66.73,35.05-40.61-28.13-90.27-42.97-139.66-41.75-21.09.52-42.26,3.87-63.19,1.21-23.1-2.94-44.72-13.06-67.65-17.1-24.03-4.24-48.82-1.69-72.92-5.48-28.99-4.56-55.75-18.06-81.2-32.67-19.82-11.37-39.19-23.53-58.06-36.43-8.5-5.81-19.05-12.03-28.41-7.75-5.93,2.71-9.33,8.87-12.63,14.5-28.95,49.45-79.37,86.12-97.7,140.41-19.23,56.96,1.44,118.86,21.97,175.37,10.05,27.66,21.03,56.25,40.07,79.13,9.46,11.36,22.81,3.1,30.87,15.14,12.75,19.05,13.29,33.02,25.76,50.28,11.91,16.48,20.71,31.13,32.93,47.35Z"/></g><g id="face_1"><path class="cls-25" d="M1533.43,963.98c4.77-3.98,7.77-8.98,12.02-12.58,2.36-1.98,4.75-3.91,7.13-5.82,7.14-5.75,14.15-11.42,19.68-18.25,2.79-1.93,5.36-4.03,7.72-6.28,21.21-20.2,25.52-52.12,28.16-79.77.36-3.24.71-6.46,1.09-9.67.37-3.21.76-6.4,1.2-9.56.54-3.74,1.08-7.47,1.62-11.2,4.89-33.55,9.93-66.83,11.29-100.99.19-2.58.38-5.21.56-7.84.36-5.25.68-10.48.92-15.67.1-3.73.17-6.22.17-6.22,0,0,5.77-197.82,3.71-199.88-2.06-2.06-128.45-131.2-128.45-131.2l-136.61-76.24-129.9,44.65s-6.74,11.2-17,28.1c-3.42,5.63-7.23,11.89-11.31,18.58-6.21,10.85-12.21,21.85-19.81,32.31-2.32,3.76-4.65,7.54-7,11.34-28.16,45.51-57.53,91.7-62.34,94.45-9.62,5.5-23.44,102.17-23.44,102.17,0,0,11.07,69.18,11.07,70.74s5.5,44.72,5.5,44.72l.62,50.94,21.37,183.4s115.24,39.26,212.48,72.38c2.63.88,5.24,1.77,7.84,2.64,3.56,1.1,7.1,2.2,10.62,3.3s7.01,2.22,10.49,3.33c24.38,7.13,48.38,15.13,71.56,24.96,2.46.84,4.81,1.64,7.02,2.39,15.52,5.29,24.8,8.45,24.8,8.45l3.73-6.47c1.17-2.03,2.59-4.48,4.19-7.25,1.39-2.99,2.85-5.94,4.37-8.86,1.52-2.91,3.09-5.8,4.7-8.66,12.02-24.43,30.02-43.43,37.07-69.48,1.89-4.45,3.18-6.97,3.18-6.97Z"/></g><g id="eyes_white"><path class="cls-16" d="M671.48,755.38c.72-.1,1.46-.15,2.14-.41.59-.22,1.12-.59,1.64-.95,5.91-4.09,12.22-7.6,18.81-10.46-4.05,2.68-8.09,5.38-12.12,8.08-.86.58-1.84,1.48-1.5,2.45.39,1.14,2.03,1.02,3.19.67,10.05-3.01,20.1-6.02,30.16-9.03,2.93-.88,5.92-1.78,8.41-3.57,1.59-1.15,2.94-2.63,4.64-3.6s3.98-1.34,5.55-.17c-1.62,1.54-3.13,4.41-1.27,5.64.85.56,1.97.35,2.96.11,6.74-1.65,13.31-3.92,19.87-6.19,4.9-1.69,9.97-3.5,13.64-7.15,2.4-2.38,4.08-5.48,4.76-8.79.25-1.19.11-2.81-1.06-3.12,2.13-1.66,4.27-3.31,6.4-4.97-.48-1.5-1.65-2.76-3.11-3.36,11.75-1.24,22.95-7.06,30.73-15.95-1.95-.61-4.2-.13-5.73,1.2-1.69-1.72.42-4.55,2.6-5.58s4.99-2.07,5.22-4.47c-7.95,4.15-16.31,7.51-24.93,10.01-1.05.3-2.77-.09-2.35-1.09.84-.51,1.28-1.6,1.03-2.55-2.43,1.07-4.86,2.13-7.3,3.2-10.48,4.6-21.04,9.23-30.42,15.79-5.79,4.05-11.65,9.01-18.71,9.21-7.03.2-13.8-4.47-20.7-3.13-2.71.53-5.15,1.95-7.5,3.39-13.11,8.04-26.08,18.23-32.91,32.38-.93,1.92-1.52,4.03-2.65,5.83-.86,1.37-2.18,2.54-.54,4.09,2.7-3.88,6.19-6.85,11.05-7.53Z"/><path class="cls-5" d="M449.54,828.68c-3.65,2.17-7.36,4.39-10.14,7.6s-4.51,7.63-3.47,11.74c-5.71-1.42-12.21,1.81-14.52,7.22,2.68,2.79,6.25,4.72,10.05,5.42-1.03,1.75-.21,4.19,1.46,5.34s3.92,1.19,5.85.55,3.59-1.88,5.18-3.15c.33.73.4,1.57.21,2.35,2.05,1.46,4.86-.23,6.58-2.07s3.68-4.09,6.18-3.81c.75.09,1.56.4,2.24.06,1.15-.58.85-2.41,1.73-3.34,1.17-1.25,3.27-.09,4.96-.38.82-.14,1.52-.63,2.2-1.11,3.4-2.39,6.79-4.78,10.19-7.17,2.37-1.66,4.84-3.46,5.98-6.13.5-1.16.71-2.44,1.24-3.59,1.21-2.58,3.84-4.12,6.32-5.51,2.49-1.39,4.98-2.78,7.46-4.18,3.01-1.69,6.07-3.41,8.48-5.88.81-.84,1.87-1.84,2.96-1.44.59.22.95.79,1.4,1.23,1.34,1.3,3.55,1.39,5.22.55s2.85-2.43,3.65-4.11c.61-1.28,1.02-2.83.33-4.06-.46-.83-1.34-1.34-2.22-1.73-2.55-1.12-5.36-1.46-8.14-1.66-18.04-1.24-35.9,3.64-53.18,8.95-3.11.96-6.28,1.96-8.93,3.86s-4.72,4.9-4.68,8.16l5.4-3.74Z"/><path class="cls-41" d="M1442.51,599.35c-.22.27-.45.58-.42.92.04.41.42.68.77.89,2.06,1.3,4.29,2.64,6.72,2.53,1.63-.08,3.15-.8,4.71-1.26,2.99-.87,6.16-.75,9.27-.62,5.5.23,11.01.45,16.51.68.99.04,2.1.03,2.78-.69.76-.81.59-2.09.36-3.18-1.03-4.98-2.55-10.63-7.13-12.86-1.61-.79-3.44-1.03-5.23-1.09-11.55-.35-21.2,6-28.35,14.66Z"/><path class="cls-41" d="M1513.22,592.91c-1.88,1.99-4.59,3.25-5.88,5.66.37,1.22,2.07,1.26,3.32,1.03,10.08-1.89,19.83-5.55,28.67-10.77.95-.56,1.96-1.22,2.36-2.25.51-1.31-.15-2.83-1.21-3.75s-2.43-1.36-3.77-1.79c-4.71-1.49-12.92-4.42-17.62-1.39-3.91,2.52-2.45,9.64-5.87,13.26Z"/></g><g id="jumper_1"><path class="cls-35" d="M1114.49,1002.76c17.48,31.14,35.21,62.9,42.49,97.86,4.68,22.43,5,45.96,13.44,67.27,5.61,14.17,14.56,26.71,23.43,39.1,71.16,99.38,145.61,201.8,251.66,262.58,53.41,30.61,112.64,49.28,169.47,72.93,56.83,23.65,105.8,52.44,145.02,99.89v-424.12c-2.4-2.59-3.18-4.15-6.39-5.64-6.77-3.15-13.54-6.29-20.31-9.44-22.2-10.31-44.45-20.65-67.6-28.59-8.99-3.08-18.09-5.8-27.19-8.52-20.67-6.17-41.34-12.34-62.01-18.51-5.26-1.57-10.57-3.15-16.05-3.52-11.04-.75-24.16,2.76-31.74-5.3-1.67-1.78-3.02-4.1-5.34-4.86-2.08-.68-4.7,0-6.28-1.5-.96-.92-1.19-2.35-1.25-3.68-.48-10.85,6.19-20.76,7.46-31.54,1.34-11.42-3.44-22.53-5.4-33.9-.39-2.27-.67-4.57-.79-6.93-.49-3.79-.55-7.37-.26-10.78s.94-6.64,1.86-9.8c9.51-23.75,29.51-43.75,31.55-71.15.35-3.36.46-6.77.3-10.2-.16-3.43.15-3.4-.6-6.9-1.92,1.17-3.84,3.05-5.61,4.39s-3.45,2.76-5.02,4.23c-17.47,30.99-51.13,30.88-82.39,37.48-3.23.75-6.42,1.3-9.62,1.76-25.63,3.66-52.5,1.31-78-4.02-2.96-.65-5.93-1.26-8.91-1.81-3.01-.67-6.04-1.26-9.07-1.8-27.3-4.81-55.36-4.62-82.92-8.04-30.63-3.79-62.24-12.95-83.73-35.11-3.36-3.46-6.93-7.47-11.73-7.89-3.06-.27-6.01,1.01-8.81,2.25-7.72,3.43-15.75,7.11-20.95,13.77-3.97,5.09-5.88,11.42-8.3,17.4-4.51,11.14-12.28,23.78-20.41,32.64Z"/><path class="cls-51" d="M1549.71,976.08c1.66,4.07-.34,8.07-1.34,11.07-10,17-23,31-27.44,50.28-.81,3.07-1.44,6.18-1.85,9.36s-.62,6.42-.61,9.71c-.2,3-.12,5.96.43,8.86.7,3.71,2.16,7.22,3.4,10.78,2.11,6.05,3.61,12.45,3.04,18.83-1.03,11.32-8.47,21.61-8.49,32.86-8.48,5.89-12.35,19.25-22.65,21.88-.21-1.66-1.25-3.19-2.71-4.01-4.85,2.13-8.65,6.05-12.41,9.78-6.57,6.52-13.42,12.75-20.26,18.98-7.25,6.59-14.49,13.18-21.74,19.78,20.71-19.43,39.9-41.17,58.51-62.61,5.17-5.96,10.36-12.16,13.07-19.57,4.19-11.49,1.91-24.16.92-36.35-.28-3.38-.45-6.76-.52-10.14s-.04-6.78.07-10.27c-.69-3.04-.9-6.13-.71-9.21,1.94-28.94,29.94-42.94,38.59-69.2.69-.52,1.65-.77,2.69-.81Z"/><path class="cls-51" d="M1530.88,989.49c7.33-1.49,4.33-10.49,6.33-14.49-5,8-12,13-20,16-19,6-41,6-57.12,20.34-1.94,1.47-3.78,3.01-5.46,4.74-1.67,1.73-3.17,3.67-4.42,5.92,1.5-1.75,3.19-3.25,4.99-4.58s3.73-2.48,5.71-3.59c20.3-11.83,42.3-17.83,65.48-21.71,1.56-.72,3.06-1.57,4.49-2.63Z"/><path class="cls-51" d="M1174.5,949.98c30.71,16.99,64.31,28.74,98.91,34.62,23.68,4.02,47.85,5.31,71.58,8.8,3.39.5,6.77,1.04,10.14,1.65,3.11.5,6.22,1.09,9.35,1.75,3.12.65,6.25,1.37,9.36,2.02,22.66,5.03,45.62,4.09,68.16-.02,3.22-.59,6.43-1.24,9.63-1.95,19.58-7.84,41.58-4.84,61.58-11.84,13-4,32.75-23.5,36.75-37.5-8.98,2.66-27.75,25.5-37.75,29.5-21,6-40,13-61.29,16.82-3.28.58-6.57,1.08-9.87,1.52-23.08,3.03-46.52,2.48-69.1-2.6-3.35-.94-6.66-1.93-9.94-2.96-2-.73-4.02-1.5-6.04-2.24-8.07-2.99-16.21-5.7-24.75-6.28-6.22-.42-12.46.3-18.7.45-16.48.38-30.82-8.16-46.9-11.79-13.01-2.94-24.03-8.98-37.04-11.92-7.34-1.66-18.72-3.11-25.32-6.74-5.03-2.77-9.46,1.11-12.89-3.5-2.27-3.04-4.19-6.49-7.35-8.59-8.29-5.5-19.93,4.51-8.51,10.83Z"/><path class="cls-51" d="M1515.69,1128.68c0,.49.01.98.04,1.47"/><path class="cls-35" d="M1124.53,1017.07c-39.04,118.92-156.41,195.36-275.1,235.1-118.69,39.74-245.38,52.44-362.86,95.63-35.12,12.91-70.18,29.14-96.02,56.22-54.92,57.54-54.57,146.02-63.39,225.07-31.09,278.93-214.6,490.28-211.4,770.92h1644.23v-699.34l-719.86-458.04,84.39-225.55Z"/></g><g id="jumper_2"><path class="cls-6" d="M696.38,1227.42c.11,21.2,4.2,42.29,10.36,62.41,3.4,11.12,7.5,23.07,4.59,34.21-.43,1.63-1,3.24-1.05,4.95-.07,2.61,1.09,5.05,2.24,7.33,7.16,14.19,15.53,28.26,17.75,44.39,1.79,13.03-.26,27.75,6.85,38.17,3.98,5.85,10.34,9.13,16.67,9.76,6.33.63,12.65-1.17,18.44-4.02,7.71-3.79,14.69-9.48,20.37-16.58,12.71-15.89,18.27-37.74,22.23-59.09,2.29-12.35,4.19-25.08,2.67-37.7-1.81-15.04-8.35-28.86-15.51-41.7-9.36-16.79-20.11-32.77-33.43-45.48-11.3-10.78-24.24-19.01-35.61-29.68-3.22-3.02-6.38-6.34-8.29-10.6-1.91-4.26-2.34-9.67-.13-13.61,1.94-3.47,5.45-5.17,8.63-7.05,8.19-4.84,14.11-9.53,32.61-19.39,0,0-19.97,6.67-23.49,9.21-7.54,5.42-8.89,2.5-17.09,6.49-4.25,2.07-15.15,2.63-19.54,4.29-3.07,1.16-9.72,1.65-11.9,4.39-2.55,3.19.09,7.18.99,10.96,1.23,5.13,1.77,10.44,2.01,15.72.51,10.88-.42,21.74-.36,32.61Z"/><path class="cls-48" d="M228.19,2400c-.09-13.33,20.34-186.91,20.16-209.18-.32-39.72,1.73-47.95,1.34-85.71-.24-22.8-1-21.34-1.49-53.57-.42-27.25-.63-40.88,0-55.95,1.5-36.13,5.11-40.25,6.14-77.38.53-19.08.08-36.26,0-39.28-.36-13.28-.99-22.88-1.19-26.19-2.27-37.85,2.03-83.85,4.76-113.09,4.05-43.35,6.03-41.58,7.14-67.85.39-9.15.65-21.29,3.57-38.09,1.86-10.72,3.87-21.9,9.52-35.71,2.41-5.88,8.48-19.58,20.24-34.52,0,0,12.55-15.95,29.76-28.57,36.42-26.7,109.09-45.48,152.37-58.33,72.14-21.42,69.32-28.37,144.04-52.38,28.42-9.13,53.11-28.74,82.14-35.71,4.27-1.03,13.92-3.14,17.86-10.71,4.52-8.69-2.96-15.94-5.95-35.71-2.11-13.95-4.31-28.43,3.57-38.09,7.47-9.16,17.82-6.41,26.19-19.05,1.64-2.47,5.02-7.74,3.57-13.09-1.51-5.56-7.46-8.32-9.78-9.51-20.9-10.74-33.64-41.46-37.95-51.84,0,0-2.87-6.92-5.79-35.76-.15-1.47-.44-4.9,1.41-6.17,1.06-.73,2.41-.46,2.83-.39,2.38.41,8.4-1.01,20.45-3.86,29.36-6.94,83.99-41.03,83.99-41.03,41.23-25.73,35.63-24.61,51.37-32.58,15.6-7.9,19.42-8.15,62.33-25.95,24.46-10.14,36.69-15.21,48.62-21.1,21.79-10.74,36.88-18.18,54.54-31.39,9.13-6.83,19-12.75,27.53-20.32,6.44-5.72,14.86-8.8,21.61-14.15.96-.76,3.84-3.09,6.95-2.44,1.76.37,2.92,1.56,3.6,2.32,4.24,4.71,6.45,10.85,7.2,12.73,1.58,3.95,6.2,8.34,15.44,17.11,7.61,7.23,9.25,6.75,13.76,11.83,5.61,6.33,8.27,12.43,9.77,15.86,30.17,69.13,29.18,63.03,33.16,76.13,3.02,9.95,6.78,23.96,15.34,37.68,4.57,7.33,9.34,13.34,9.34,13.34,5.13,6.47,7.95,8.8,13.81,15.53,0,0,5.24,6.02,12.2,15.48,9.52,12.94,13.2,21.3,20.68,34.35,10.3,17.99,19.84,30.94,24.34,37.02,11.54,15.58,22.7,28.07,31.68,37.35,6.09,6.3,10.56,10.47,19.01,18.34,19.25,17.93,35.38,31.75,39.68,35.35,24.63,20.63,60.31,40.65,99.71,61.03,67.61,34.96,138.87,67.76,138.87,67.76,7.43,3.42,36.15,16.61,70.23,38.29,17.58,11.19,30.13,20.52,42.52,31.85,3.21,2.93,16,14.76,30.2,32.49,2.98,3.72,11.49,14.53,20.32,29.7,6.26,10.76,7.83,18.07,9.08,27.01v756.11H228.19Z"/><path class="cls-43" d="M323.32,1586.62c-3.73,35.7,1.68,71.4,5.02,106.9,2.87,26.63,6.6,53.26,11.2,79.66,1.51,8.82,3.22,17.61,4.87,26.42-9.99-34.47-16.06-70-20.04-105.64-3.19-35.55-7.98-71.97-1.05-107.34h0Z"/><path class="cls-43" d="M345.65,1753.85c11.33,33.8,23.08,71.08,33.12,105.29-8.01-16.64-14.32-34.01-19.95-51.58-5.44-17.63-10.21-35.48-13.17-53.71h0Z"/><path class="cls-43" d="M387.72,1883.78c-13.05-42.79-65.18-56.15-82.1-96.67-2.4-5.74-3.88-11.92-4.1-18.18l2.27.53c-6.58,12.58-2.38,27.88,5.1,39.16,3.81,5.89,8.8,10.89,14.03,15.55,10.68,9.46,22.82,17.34,32.53,28.02,19.69,21.37,29.67,51.41,26.45,80.32-4.09,35.95-26.38,66.49-33.93,101.34-9.17,41.32-.76,86.27,23.01,121.33,7.96,11.81,17.79,22.47,24.59,35.18,6.76,12.62,10.87,26.74,14.85,40.41,14.8,55.21,21.65,112.31,25.39,169.23-2.39-28.44-5.75-56.78-10.25-84.94-5.76-35.09-12.41-70.28-24.25-103.84-2.39-6.67-5.1-13.21-8.5-19.35-6.78-12.32-16.58-22.79-24.68-34.74-16.31-23.88-25.6-52.23-27.32-81.05-1.27-21.59,1.95-43.52,9.39-63.84,9.58-26.66,24.63-51.72,27.99-80.14,3.19-27.86-6.36-56.9-25.27-77.58-11.97-13.16-27.78-22.4-39.77-35.67-12.04-13.15-20.41-33.52-11.5-50.52,0,0,2.16-4.05,2.16-4.05l.11,4.58c.27,12.08,5.55,23.45,12.69,33.04,21.11,29.29,60.95,44.96,71.1,81.89h0Z"/><path class="cls-43" d="M409.12,2196.22c-27.39-37.09-40.91-82.36-51.04-126.77,0,0,3.68.5,3.68.5-2.19,4.16-.88,9.25.24,13.77,3.7,14.62,7.74,30.66,12.24,44.94,6.2,19.73,14.14,38.98,25.58,56.31-19.2-24.86-29.38-55.26-37.57-85.23-1.39-5.01-2.71-10.03-4.01-15.06-1.36-5.29-2.78-11.3.02-16.62,0,0,2.49-4.62,2.49-4.62l1.19,5.12c5.73,24.96,12.16,49.88,21.04,73.93,3.73,10.04,8.75,21.77,13.5,31.37,3.46,6.92,8.53,15.8,12.63,22.36h0Z"/><path class="cls-43" d="M293.28,1874.48c1.58,11.3,6.18,21.67,11.49,31.55,5.43,9.87,11.2,19.63,17.16,29.2,10.36,16.87,21.53,33.23,33,49.37.33.54,2.88,3.83,2.98,4.5.31.73-.17,2.06-1.14,1.38-.31-.17-.61-.75-.12-.86-.43.17-.07.62.21.72.31.16.64.11.72-.2.21-.58-.22-1.2-.65-1.69-22.03-24.22-40.47-51.64-54.92-81.02-4.87-10.26-8.79-21.48-8.71-32.95h0Z"/><path class="cls-43" d="M310.99,1899.41c4.5,11.28,9.57,22.1,15.95,32.35,4.17,6.85,8.95,13.25,13.7,19.73,7.1,9.86,14.06,19.77,20.35,30.2-10.97-12.01-21.05-24.55-30.7-37.66-9.4-13.3-16.44-28.56-19.31-44.63h0Z"/><path class="cls-14" d="M1584.93,1555.12c4.08-3.07,8.16-6.15,12.24-9.22,4.37-3.29,8.75-6.59,13.47-9.36,2.87-1.69,5.87-3.17,8.99-4.35,15.35-5.77,32.4-3.59,48.64-1.33-4.11-4.39-10.75-4.97-16.75-5.27-3.75-.19-7.5-.38-11.25-.17-10.41.59-20.46,4.27-29.56,9.38-9.09,5.1-17.31,11.61-25.35,18.25-5.04,4.16-10.33,8.39-14.46,13.48,4.74-3.72,9.2-7.76,14.03-11.4Z"/><path class="cls-13" d="M1164.28,1290.45c15.27-20.82,25.21-45.06,39.29-66.71,2.4-3.7,4.98-7.43,5.96-11.73,1.32-5.77-.39-11.76-2.09-17.44-.33-1.1-.9-2.41-2.05-2.5-.28,5.75,3.17,11.13,3.27,16.88.12,6.56-4.02,12.31-7.6,17.82-5.18,7.97-9.49,16.46-14.08,24.78-8.87,16.09-18.79,31.6-29.68,46.4-3.15,4.28-8.23,9.82-9.02,15.21,2.74-3.54,4.8-7.83,7.5-11.49s5.73-7.44,8.51-11.23Z"/><path class="cls-33" d="M936.36,1091.82c-31.37,19.66-68.87,27.86-100.1,47.73-13.71,8.72-46.22,39.68-63.67,32.05,10.65-9.42,26.73-15.74,39.31-22.47,13.35-7.14,26.84-14.02,40.47-20.63,27.5-13.34,55.52-25.58,84-36.68Z"/><path class="cls-10" d="M843.54,1140.55c9.64-6.03,19.77-11.21,29.77-16.62,1.76-.95,3.56-1.94,4.89-3.45-7.05,3.03-14.03,6.23-20.93,9.59-6.21,3.03-12.36,6.19-18.31,9.69-11.46,6.75-22.12,14.75-32.75,22.73-1.51,1.14-3.03,2.27-4.43,3.55-.71.65-.77,1.24.31.83.86-.33,1.7-.84,2.51-1.27,3.3-1.72,6.53-3.59,9.69-5.56,6.37-3.96,12.5-8.29,18.68-12.52,3.48-2.38,6.99-4.73,10.57-6.97Z"/><path class="cls-52" d="M725.66,1364.13c-1.08-1.08,5.64,9.44,10.43,15.64,0,0,26.6,34.4,76.46,51.26,96.88,32.76,275.66-63.99,340.16-98.89,23.83-12.9,53.32-29.54,53-30.13-.42-.78-51.14,27.28-111.65,55.61-100.43,47.02-150.64,70.53-202.88,70.38-30.79-.09-98.34,8.36-151.97-54.41-4.73-5.54-14.85-26.39-14.85-26.39,0,0,2.21,14.64,16.94,35.38.53.75-15.54-18.34-15.64-18.44Z"/><path class="cls-27" d="M1349.33,2400h234.96-.37l-1.5-30.54.37-13.47-2.62-21.33-11.6-91.66-9.35-72.96-4.86-47.52-2.62-26.94-.75-22.82-.75-14.97-3.74,4.12-4.49,2.24-3.37,5.61-10.85,4.49-7.11,9.73-5.99,2.62s-138.81,19.46-131.7,144.04c0,0-2.24,4.86-15.34,16.09-13.09,11.22-67.35,47.89-38.54,114.86l20.2,38.4Z"/></g><g id="eyeshadow_2"><path class="cls-1" d="M1287.75,603.74c4.48-4,9.75-7.52,12.32-12.96,4.19-8.89-.67-19.86-8.3-26.04-7.64-6.18-17.43-8.85-26.73-12-11.65-3.94-22.97-8.86-33.81-14.68-6.74-3.62-13.42-7.65-20.88-9.32-17.69-3.98-35.21,5.81-52.95,9.56-4.29.91-8.71,1.48-12.75,3.21-3.46,1.49-6.52,3.78-9.37,6.24-14,12.09-23.92,29.4-25.1,47.85-.23,3.6-.07,7.43,1.89,10.45,1.2,1.84,2.97,3.23,4.75,4.53,5.32,3.87,10.99,7.25,16.92,10.09,2.01.96,4.11,1.87,6.25,2.48s4.34.94,6.57.74c11.06-3.95,22.18-7.45,33.47-10.21,2.82-.69,5.66-1.33,8.5-1.92,27.69-2.76,59.69-11.76,84.71,4.34,1.73.84,3.52,1.08,5.67-.31,3.45-2.24,5.45-9.02,8.85-12.05Z"/><path class="cls-1" d="M1436.02,577.15c-3.08-6.64-11.57-11.14-10.95-18.43.4-4.79,4.72-8.16,8.66-10.91,7.23-5.05,14.45-10.1,21.68-15.15,5.39-3.77,10.78-7.54,16.18-11.31,5.69-3.98,11.41-7.98,17.62-11.1,8.22-4.14,17.14-6.68,26-9.2,12.66-3.6,25.49-7.22,38.65-7.48,10.1-.2,20.23,1.62,29.63,5.31,7.72,3.04,15.15,7.52,20.01,14.24s6.75,15.99,3.26,23.52c-2.12,4.56-5.93,8.08-9.64,11.48-4.51,4.12-9.02,8.25-13.54,12.37-9.27,8.47-19.89,17.47-32.44,17.12-2.75-.08-5.43-.61-8.11-1.28-2.98-.73-5.99-1.33-9-1.8-28.82-6.52-61.82-.52-85.26,19.98-2.09,1.53-4.37,2.29-6.9.61-5.01-3.31-3.56-13.06-5.84-17.96Z"/></g><g id="face_details1"><path class="cls-3" d="M1141.76,617.61c.73-.09,1.51-.19,2.07-.67,6.69-14.47,20.04-24.71,35.34-29.76,3.06-1.01,6.2-1.81,9.38-2.4,19.67-5.79,39.67,2.21,55.67,11.21,10,5,20,12,30.31,18.92,1.7,1.04,3.4,2.11,5.08,3.2.82.53,1.74,1.27,1.63,2.25-.09.8-.83,1.33-1.52,1.74-1.88,1.1-3.86,2-5.9,2.77-21.6,8.13-43.6,14.13-68.08,12.19-2.91.17-5.83.37-8.76.55-14.62.91-29.39,1.38-43.76-3.62,1-1,2-3,2-4,0-2-1-4-5.69-3.03-2.38.04-5.64-.1-8.76-.68s-6.13-1.6-7.99-3.3c-5.27-4.81,6.14-5.03,8.99-5.37Z"/><path class="cls-22" d="M1336.5,730.19c-.84,1.36-1.21,2.96-1.46,4.54-.11.69-.2,1.42.05,2.07.46,1.16,1.87,1.64,3.11,1.59,2-.08,3.81-1.14,5.52-2.18,1.95-1.18,3.95-2.39,5.41-4.15.62-.75,1.14-1.59,1.83-2.28,1.17-1.17,2.82-1.84,4.47-1.83,1.25.01,2.74.7,2.79,1.95.04,1.08-.97,1.85-1.78,2.55s-1.55,1.92-.91,2.78c.5.68,1.52.65,2.33.42,2.15-.59,4.04-2.07,5.13-4.01.51-.91.84-2,.48-2.97-.23-.62-.71-1.1-1.21-1.54-3.05-2.69-7.12-4.2-11.19-4.16-4.67.05-12,3.05-14.58,7.21Z"/><path class="cls-22" d="M1399.54,735.75c.49.89,1.09,1.78,1.98,2.27s2.14.47,2.8-.3c.47-.53.56-1.29.57-2,.01-1.21-.17-2.41-.53-3.56-.2-.63-.46-1.29-.3-1.92.15-.62.66-1.07,1.14-1.49,2.62-2.26,5.24-4.52,7.87-6.78,1.19-1.03,2.41-2.07,3.88-2.63s3.26-.55,4.48.44c.62.5,1.05,1.2,1.53,1.84,1.52,2.02,3.71,3.52,6.14,4.2.61.17,1.3.28,1.83-.05,1.13-.7.54-2.46-.29-3.5-4.75-5.94-12.85-7.75-20.31-9.19-1.09-.21-2.23-.42-3.31-.17-1.02.23-1.91.85-2.77,1.45-7.35,5.17-9.11,13.36-4.71,21.41Z"/><path class="cls-15" d="M1165.93,790.21c-1.31.46-2.78,1.47-2.54,2.83.07.38.28.73.55,1.01.86.86,2.41.87,3.28.04s.93-2.39.11-3.28-2.37-.98-3.28-.18"/><path class="cls-18" d="M1276.09,529.67c5.38,2.11,10.02,5.72,14.58,9.28,2.57,2.01,5.14,4.02,7.71,6.03,1.92,1.5,3.84,3,5.63,4.66,6.96,6.46,11.69,15.29,13.22,24.66-7.7-11.53-16.82-22.11-27.08-31.44-2.28-2.07-4.62-4.08-7.15-5.83-3.42-2.36-7.14-4.2-10.8-6.14-2.85-1.51-8.64-3.74-10.01-6.64,4.47,2.35,9.18,3.57,13.9,5.42Z"/><path class="cls-18" d="M1313.31,554.47c2.35,4.02,3.36,8.79,6.15,12.52,2.04,2.73,4.97,4.85,6.31,7.98,1.45,3.41.77,7.55,2.71,10.7,2.36-4.9.83-10.86-1.89-15.57-2.72-4.71-6.54-8.73-9.18-13.49-2.02-3.63-3.36-7.7-6.12-10.81-1.29-1.45-11.34-10.97-10.15-4.9.41,2.1,5.07,5.19,6.57,6.69,2.09,2.1,4.11,4.29,5.61,6.86Z"/><path class="cls-18" d="M1411.32,546.39c2.05-6.99,4.16-14.13,8.37-20.08,1.02-1.44,2.19-2.9,2.36-4.65-2.1.29-3.54,2.21-4.63,4.04-4.08,6.85-8.41,16.96-7.53,25.08.65-1.36,1-2.92,1.44-4.39Z"/><path class="cls-56" d="M1412.77,564.04c.14,1.52,1.06,3.53,2.52,3.06.65-.21,1.03-.87,1.29-1.51,2.29-5.46.45-11.85,2.04-17.55.61-2.2,1.71-4.23,2.81-6.24,3.68-6.75,7.35-13.5,11.03-20.26,1.38-2.54,2.77-5.09,4.58-7.34,4.51-5.62,11.23-8.95,17.89-11.7,1.99-.82,4.14-1.74,5.21-3.61-6.92.77-12.93,5.04-18.1,9.69-10.76,9.69-19.41,21.7-25.19,34.98-2.84,6.54-4.73,13.31-4.08,20.46Z"/><path class="cls-56" d="M1436.27,527.11c4.08-5.5,8.15-10.99,12.23-16.49-3.4.47-5.85,3.4-7.95,6.11-7.02,9.09-16.73,20.54-17.69,32.51,1.49.37,4.33-8.42,5.39-10.31,2.34-4.16,5.18-8.01,8.02-11.83Z"/><path class="cls-56" d="M1430.7,549.06c2.29.13,3.6-2.48,4.45-4.62,1.51-3.8,3.45-7.44,5.78-10.8,1.3-1.88,3.38-3.88,5.53-3.1-1.39,3.8-3.2,7.45-5.38,10.85-1.33,2.07-2.75,4.97-1.02,6.72,4.35-6.48,8.94-12.8,13.77-18.94,2.28.93,1.85,4.27.97,6.58-.58,2.25-.58,4.25-.58,4.25,13,1,20-11,30.99-16.07,1.31-.93,2.37-2.44,2.23-4.05-.05-.6-.27-1.24-.02-1.8.39-.86,1.63-.91,2.5-.52.86.39,1.6,1.07,2.52,1.27,1.25.28,2.5-.39,3.61-1.02,16.43-9.4,33.36-17.93,50.7-25.53,1.6-.7,3.34-1.54,4-3.15.76-1.86-.26-3.95-1.37-5.63-3.16-4.81-7.59-9.16-13.2-10.46-3.46-.8-7.1-.39-10.6-.99-2-.35-3.98-1.03-6.01-.96-2.47.08-4.77,1.26-6.91,2.51-7.52,4.36-14.42,9.81-22.34,13.4-3.48,1.58-7.13,2.78-10.53,4.53-1.93.99-3.76,2.15-5.56,3.36-18.35,12.28-38.53,31.87-43.51,54.18Z"/><path class="cls-39" d="M1522.83,492.05c-.37.56-.72,1.17-.72,1.84s.47,1.38,1.14,1.41c.47.02.89-.28,1.26-.58,1.87-1.51,3.57-3.26,5.62-4.53,2.19-1.35,4.69-2.1,7.21-2.65,1.27-.28,2.78-.7,3.16-1.94.45-1.48-1.26-2.88-2.81-2.81s-2.89,1.04-4.22,1.84c-4.21,2.54-7.71,3-10.63,7.42Z"/><path class="cls-56" d="M1546.4,548.74c4.12,2.52,7.98,5.77,12.69,6.83-3.22,2.31-6.43,4.62-9.65,6.93-.9.65-1.84,1.33-2.31,2.34s-.3,2.4.68,2.94c2.42,1.32,3.89-3.74,6.63-3.93,2.48-.18,3.18,3.36,5.02,5.03,1.69,1.53,4.31,1.32,6.52.77,9.1-2.25,17.14-8.56,26.51-9.01-2.26,1.94-4.53,3.87-6.79,5.81-4.85,4.15-9.73,8.32-15.16,11.69-6.69,4.16-14.08,7.02-21.43,9.87-2.57,1-5.14,1.99-7.72,2.99-2.34.91-4.69,1.81-7.04,2.71s-4.7,1.78-7.06,2.65c-4.08,2.65-9.08,2.65-14.08,4.65,2-7,9-3,12.06-6.59,3.3-1.39,6.52-3,9.62-4.8,1.34-.78,2.85-2.27,2.07-3.6-.3-.51-.86-.79-1.4-1.04-1.99-.91-4.06-1.64-6.19-2.22-3.17-.76-8.17-3.76-9.17-.76-4,16-20,19-33,20-10,0-13-13-20-17-4-2-9,6-13.54,9.36-1.8,1.78-3.5,3.69-5.33,5.42s-3.77,3.29-6.06,4.33c-.51.23-1.12.44-1.63.18-.44-.22-.66-.71-.8-1.18-.97-3.1-.14-6.56,1.57-9.33,1.72-2.76,4.25-4.92,6.86-6.87,22.92-19.92,52.92-21.92,81.35-23.02,2.57-.57,5.07-1.38,7.48-2.42,2.43-1.05,4.76-2.34,6.94-3.84-.19,1.61-1.61,2.78-3.04,3.55-1.42.77-3.01,1.36-4.07,2.59-1.06,1.22-1.29,3.38.04,4.3,1.49,1.04,3.47-.18,4.86-1.35,3.02-2.55,6.04-5.11,9.06-7.66.42-.36.87-.74,1.06-1.26.58-1.52-1.16-2.85-2.63-3.55-2.59-1.25-13.02-4.45-13.81-7.22-1.11-3.89,9.38.79,10.87,1.7Z"/><path class="cls-11" d="M1479.23,601.68c-8.02-1.68-17.02-.68-24.59-.57-2.09.46-4.04,1.28-5.6,2.75,1.95,1.06,4.3-.04,6.45-.61,17.71-1.24,35.71,2.76,52.71-5.24-13-1-26,6-39.49,3.59l10.51.08Z"/><path class="cls-39" d="M1150.47,615.01c8.74.99,16.74-2.01,24.74-7.01-3-2-7-2-10,0,5.25-6.75,12.75-3.94,19.55-3.8,2.27.05,4.45-.2,6.46-1.19,17.99-8.02,37.99-2.02,56.99-2.02-19-7-39-19-59.38-12.35-2.54.6-5.06,1.35-7.55,2.23-9.93,3.52-19.31,9.11-27.47,15.77-3.79,3.12-6.49,6.56-3.34,8.37Z"/><path class="cls-34" d="M1161.13,632.2c10.06.67,23.54,2.86,32.97,1.26,1.88-.32,3.61-.79,5.11-1.46-2-.5-3.88-1.12-5.61-1.91-5.2-2.34-9.14-6.09-11.39-12.09-7,3-14,5-20.75,7.48-4.26,1.32-6.47,5.79-.32,6.72Z"/><path class="cls-34" d="M1243.28,630.19c10.93-1.19,22.93-3.19,32.93-9.19-9-8-22-11-34-10-10,1-9,15-16,21,3,0,6,0,8.66-.62,2.84-.31,5.67-.72,8.41-1.19Z"/><path class="cls-38" d="M1367.71,836.66c-.22.28-.43.64-.3.98.08.22.3.37.52.46,1.69.73,3.45-.73,4.83-1.95,1.82-1.61,3.84-3,5.99-4.14.87-.45,2.19-.73,2.61.15.11.23.12.5.26.71.17.28.51.41.82.5,1.76.51,3.69.42,5.4-.25,1.35-.53,2.69-1.68,2.59-3.13-.08-1.16-1.11-2.08-2.22-2.39s-2.31-.13-3.44.11c-3.24.69-6.38,1.86-9.28,3.45-2.54,1.39-5.97,3.17-7.76,5.49Z"/><path class="cls-38" d="M1374.57,785.2c-.42.41-.68.94-.94,1.47-.28.56-.56,1.13-.84,1.69-.11.22-.23.48-.14.72.16.42.76.39,1.2.29,1.79-.41,3.61-.67,5.44-.76.88-.04,1.86-.02,2.53.56.53.46.76,1.17,1.23,1.69.83.92,2.42,1.01,3.35.2s1.05-2.4.25-3.35c-.93-1.1-2.59-1.14-3.9-1.76-.59-.28-1.11-.69-1.69-1-1.59-.86-5.07-1.13-6.48.26Z"/><path class="cls-38" d="M1397.72,783.74c-.71.5-1.34,1.36-1.03,2.17.2.51.71.82,1.23,1s1.07.26,1.55.5c.25.12.48.29.75.33.28.04.57-.07.85-.13,1.1-.24,2.21.28,3.28.63s2.39.5,3.2-.3c.52-.51.74-1.36,1.42-1.64-2.19-3.6-7.69-5.06-11.25-2.56Z"/><path class="cls-17" d="M1313.33,837.3c-1.16.34-2.38.51-3.46,1.04-1.11.55-2.05,1.51-2.43,2.69s-.17,2.57.66,3.5c1.41,1.56,4.01,1.33,5.82.25s3.13-2.8,4.77-4.13c2.48-2,5.61-3.06,8.15-4.99.92-.7,1.81-1.59,2.03-2.73.92-4.69-5.17-1.48-6.73-.53-2.87,1.74-5.53,3.95-8.81,4.9Z"/><path class="cls-17" d="M1361.42,816.03c3.85-1.9,7.91-3.78,12.2-3.62,3.09.11,6.03,1.28,9,2.16,9.91,2.92,21.14,2.42,29.97-2.93,2.89-1.75,5.56-4.02,8.83-4.88,1.58-.42,3.23-.49,4.86-.53,7.31-.18,14.63.19,21.88,1.11-.54,1.27-2.24,1.41-3.62,1.38-6.43-.16-12.94.17-19.11,1.98-3.86,1.13-7.53,2.83-11.31,4.19-11.05,3.97-23.16,4.96-34.71,2.86-1.5-.27-3.01-.6-4.54-.53-1.71.08-3.35.65-4.96,1.22-6.6,2.31-13.2,4.63-19.68,7.29-3.23,1.32-6.42,2.73-9.56,4.25-1.62.79-3.22,1.61-4.8,2.46-1.2.65-3.16,2.29-4.44,2.26,1.66-2.11,4.6-3.81,6.81-5.37,2.43-1.71,4.93-3.32,7.47-4.85,5.1-3.07,10.38-5.82,15.72-8.46Z"/><path class="cls-17" d="M1469.98,811.49c2.74,2.9,5.55,6.08,9.39,7.14.54.15,1.25.19,1.52-.31.24-.44-.07-.98-.37-1.38-4.54-5.94-11.03-10.37-18.22-12.42-.48-.14-.98-.26-1.47-.16-.45.1-.77.4-.88.83,1.55.92,3.64,1.02,5.3,2.11,1.76,1.15,3.29,2.65,4.73,4.18Z"/></g><g id="lip_2"><path class="cls-42" d="M597.48,1034.4c.57-.64,1.04-1.43,1.82-1.79.54-.25,1.15-.27,1.72-.44.92-.28,1.67-.93,2.39-1.56,9.59-8.28,20.76-14.74,32.72-18.92,10.33-3.61,21.22-5.53,31.38-9.6,8.42-3.37,16.26-8.19,24.94-10.79,4.12-1.23,8.37-1.95,12.61-2.66,4.24-.71,8.51-1.43,12.82-1.37,3.33.04,6.65.55,9.98.43,8.49-.3,16.72-4.93,21.39-12.03-7.83-3.24-15.67-6.48-23.5-9.72-7.17-2.96-14.33-5.93-21.5-8.88-10.91-4.5-22.06-9.03-33.83-9.96-4.13-.33-8.4-.18-12.25,1.36-1.19.48-2.37,1.12-3.13,2.16-1.48,2.04-.86,4.95.39,7.14s3.05,4.07,4,6.41c2.31,5.68-1.17,12.22-5.86,16.17s-10.55,6.3-15.36,10.11c-.54.42-1.08.9-1.31,1.54-.26.72-.09,1.51.08,2.25.44,1.92.89,3.85,1.33,5.77-8.98,3.11-18.17,6.34-25.51,12.39-4.73,3.91-8.52,8.8-13.09,12.87-1.73,1.53-12.5,7.11-10.29,10.28,1.63,2.33,6.69.41,8.06-1.14Z"/><path class="cls-2" d="M645.34,1002.49c1.84.65,3.79,1.3,5.71.94,1.25-.23,2.37-.88,3.47-1.5,12.7-7.15,26.29-12.55,39.48-18.74.54-.25,1.18-.87.79-1.32-.15-.17-.38-.22-.61-.25-6.22-1-12.61.09-18.64,1.91-6.03,1.81-11.83,4.33-17.83,6.27-2.76.89-5.58,1.67-8.16,2.99-3.49,1.79-10.95,7.34-4.22,9.7Z"/></g><g id="blush"><path class="cls-53" d="M787.98,775.69c-3.62,8.57-4.46,18.08-7.86,26.74-.83,2.1-1.81,4.18-2.06,6.41-.29,2.53.38,5.06,1.04,7.51,2.16,8.03,4.32,16.06,6.48,24.08,1.91,7.09,3.91,14.38,8.35,20.24,4.37,5.77,10.8,9.69,17.59,12.2,3.85,1.42,7.95,2.44,12.04,2.05,3.12-.3,6.11-1.41,9.02-2.59,43.84-17.68,80.41-52.71,99.94-95.76,2.47-5.44,4.68-11,7.46-16.28,2.71-5.12,5.96-9.97,8.24-15.3,4.5-10.52,4.91-22.73,1.14-33.54s-11.69-20.11-21.76-25.55c-6.73-3.64-14.47-5.58-22.09-4.91-7.71.68-14.96,3.96-21.7,7.76-16.63,9.37-31.07,22.05-44.98,34.99-11.43,10.64-24,20.16-35.34,30.99-6.32,6.04-12.08,12.82-15.51,20.94Z"/><path class="cls-20" d="M917.41,815.6c1.63.04,2.87-1.41,3.83-2.73,11.71-16.03,21.86-33.21,30.25-51.21.97-2.08,3.83-7.57,2.48-9.9-1.71-2.94-3.48,2.79-4.35,4.53-3.32,6.63-6.71,13.23-10.18,19.79-7.05,13.34-14.39,26.51-22.03,39.52Z"/><path class="cls-36" d="M454.07,920.53c3.33-.56,6.67-1.25,10.04-1.19,4.08.08,8.05,1.25,11.96,2.42,15.94,4.76,33.07,10.35,42.71,23.92,2.19,3.09,3.91,6.49,5.61,9.88,7.22,14.35,14.61,29.37,14.65,45.44,0,2.88-.24,5.81-1.24,8.51-1.52,4.09-4.64,7.34-7.68,10.46-3.53,3.63-7.15,7.32-11.68,9.58s-10.22,2.84-14.54.2c-1.95-1.19-3.48-2.94-4.99-4.66-10.11-11.59-20.24-23.2-29.22-35.7-11.68-16.26-21.31-33.89-30.9-51.46-2.06-3.78-9.86-13.26-5.11-15.6,2.4-1.18,7.56-.31,10.29-.54,3.3-.28,6.8-1.26,10.09-1.26Z"/><path class="cls-54" d="M907.8,795.89c-1.69,2.69-3.38,5.39-5.34,7.9-5.21,6.68-12.6,12.65-13.41,21.08,5.71-4.43,10.14-10.27,14.51-16.03,4.05-5.35,8.1-10.71,11.51-16.49,2.63-4.46,4.86-9.16,7.85-13.39,2.19-3.09,4.76-5.89,7-8.94,3.34-4.56,9.34-12.78,10.01-18.5.84-7.09-7.13,4.49-8.06,5.98-8.02,12.8-16.04,25.59-24.07,38.39Z"/></g><g id="black"><path class="cls-18" d="M410.13,858.15l-3.04,1.52c4.01.63,8.11-.57,11.72-2.41s6.85-4.33,10.26-6.51c.74-.48,1.55-.96,2.43-.96s1.84.65,1.81,1.54c-.02.76-.71,1.32-1.33,1.76-2.13,1.52-4.27,3.04-6.4,4.56-1.13.81-2.35,2.4-1.35,3.36.58.56,1.61.42,2.18.99.51.5.46,1.35.86,1.95.72,1.08,2.36.8,3.54.28,4.05-1.77,7.44-4.97,9.44-8.91.58-1.14,1.1-2.41,2.18-3.11s2.9-.35,3.11.92c.15.89-.55,1.68-1.2,2.32-4.83,4.74-9.66,9.49-14.49,14.23,1.4,1.26,3.61.43,5.22-.54,5.12-3.06,9.74-6.93,13.64-11.44.87-1,2.35-2.11,3.33-1.22.39.35.51.9.53,1.42.09,2.66-2,4.89-4.2,6.39s-4.71,2.7-6.3,4.84c1.36,1.05,3.31.1,4.73-.86,3.88-2.6,8.07-5.63,9.08-10.19.22-1,.3-2.1.95-2.9s2.17-.94,2.56,0c.16.38.08.82-.05,1.22-.53,1.63-1.85,2.86-2.91,4.2s-1.95,3.1-1.4,4.72c4.02-1.91,7.3-5.34,9.03-9.45.46-1.08.97-2.37,2.11-2.65,1.4-.35,2.55,1.03,3.4,2.2s2.27,2.4,3.54,1.72c.83-.44,1.09-1.56.84-2.47s-.88-1.64-1.5-2.35c3.53-.74,6.79-2.73,9.07-5.53-1.7-.91-3.32-1.19-5.1-.45s-3.34,1.91-5.03,2.84c-3.59,1.97-7.78,2.81-11.85,2.4-1.13-.11-2.35-.31-3.33.27-.56.33-.97.87-1.51,1.22-1.33.85-3.11.35-4.45-.47s-2.52-1.96-4.01-2.46c-1.52-.51-3.18-.31-4.78-.43s-3.37-.74-4.01-2.22c-.64-1.48.11-3.18.99-4.53,3.78-5.82,10.02-9.74,13.74-15.61.33-.52.68-1.08,1.25-1.29,1.11-.41,2.14.71,2.83,1.66,4.34,5.95,10.34,10.68,17.15,13.51,2.27.95,4.76,1.69,7.16,1.17,2.61-.56,4.67-2.51,6.99-3.84,1.81-1.04,3.8-1.71,5.7-2.55,6.11-2.73,11.34-7.41,14.71-13.19,1.17-2,2.09-4.62.76-6.52-.71-1.02-2.06-2.07-1.48-3.16.44-.84,1.64-.79,2.58-.62,3.03.55,6.06,1.1,9.08,1.66.59.11,1.29.31,1.46.88.13.42-.1.87-.33,1.25-2.44,4.1-5.68,7.73-9.49,10.6,5.05-2.79,9.5-6.64,12.97-11.25.38-.5.76-1.02,1.31-1.32.96-.52,2.39-.39,2.86-1.37.43-.9-.48-1.96-1.46-2.14s-1.97.18-2.96.36c-4.49.83-8.68-2.13-12.95-3.77-2.82-1.08-5.82-1.61-8.83-1.88-17.52-1.6-34.63,5.17-50.77,12.18-2.06.9-4.16,1.81-6.4,1.98-2.39.18-4.75-.51-7.09-1.01-4.29-.92-8.7-1.25-13.07-.96,3.16,2.18,7.55,1.27,11.09,2.74.63.26,1.27.64,1.55,1.27.61,1.38-.91,2.76-2.32,3.3-6.49,2.45-14.2-1.18-20.55,1.63,3.62.41,7.24.81,10.85,1.22,1.33.15,2.98.57,3.23,1.89.18.95-.56,1.87-1.45,2.24s-1.89.31-2.85.24c-4.17-.28-8.35-.56-12.52-.84,2.05.85,3.76,2.08,5.81,2.93.81.34,1.76.86,1.78,1.74,0,.32-.11.62-.23.91-.63,1.56-1.28,3.15-2.34,4.45s-2.64,2.3-4.32,2.26c-2.46-.06-4.44-2.21-6.88-2.46.15,1.82,2.08,2.88,3.76,3.6,1.46.63,2.92,1.25,4.38,1.88.44.19.89.38,1.22.72.82.82.72,2.17.42,3.3-.76,2.86-2.07,6.11-4.71,7.43Z"/><path class="cls-18" d="M734.44,682.41c5.65-1.41,11.58-2.46,17.26-1.17,4.76,1.08,9.11,3.74,13.96,4.24-7.26,5.34-16.21,7.72-24.89,10.12-18.28,5.07-36.72,10.91-52.28,21.75s-28.07,27.53-29.61,46.44c1.53-2.24,3.06-4.47,4.59-6.71,2.58-3.78,5.17-7.56,8-11.16,6.86-8.74,15.13-16.38,24.38-22.52.96-.64,2.02-1.28,3.17-1.22.86.05,1.64.48,2.36.95,3.88,2.54,6.76,6.31,10.18,9.44,3.42,3.13,7.87,5.74,12.46,5.07-2.56,2.13-6.2,2.15-9.53,2.37-12.84.84-25.31,6.43-34.48,15.46,2.97-.06,5.7-1.53,8.37-2.85,9.34-4.61,19.4-7.77,29.7-9.31,3.05-.46,6.58-1.07,8.05-3.77.43-.78.64-1.68,1.19-2.37.6-.75,1.51-1.17,2.4-1.54,5.36-2.21,11.09-3.61,16.13-6.48s9.49-7.68,9.86-13.47c.12-1.91.15-4.41,1.98-4.99.85-.27,1.77.04,2.61.36,4.84,1.81,9.67,3.63,14.51,5.44,1.4-.53.84-2.73-.29-3.71s-2.72-1.79-2.89-3.28c-.2-1.74,1.81-2.99,3.56-2.98s3.42.78,5.17.88c1.95.12,3.84-.59,5.66-1.31,7.41-2.91,14.8-6.12,21.14-10.94,6.33-4.82,11.58-11.46,13.34-19.22-2.77,7.53-11.02,11.28-18.47,14.25-7.21,2.87-14.51,5.76-22.21,6.67.09-2.05,1.86-3.63,3.69-4.53s3.89-1.41,5.54-2.63c.46-.34.91-.79.96-1.36.13-1.58-2.33-1.62-3.81-1.04-10.39,4.11-21.41,6.62-32.56,7.42,3.84-2.29,7.68-4.58,11.52-6.88.96-.57,2.01-1.28,2.2-2.38.28-1.61-1.42-2.8-2.88-3.54-4.09-2.07-8.27-4.1-12.77-4.97-9.19-1.77-18.55,1.48-27.23,4.98-14.05,5.67-27.89,12.18-40.1,21.15-5.87,4.32-11.34,9.21-16.13,14.71-2.41,2.76-4.65,5.68-6.67,8.74-1.41,2.14-4.45,5.71-4.18,8.38,4.04-4.52,7.46-9.61,11.66-14.06s8.83-8.72,13.67-12.61c9.67-7.77,20.4-14.24,31.8-19.12,6.45-2.76,13.12-5.02,19.93-6.73Z"/><path class="cls-18" d="M730.26,743.51c-.04.17-.07.35,0,.5.17.37.71.28,1.09.14,4.03-1.51,8.05-3.03,12.08-4.54,8.43-3.17,17.06-6.46,23.78-12.46.89-.79,1.76-1.67,2.16-2.79s.19-2.54-.77-3.23c-.29-.21-.66-.36-.81-.69-.41-.85.94-2.09.18-2.64-2.98-.04-5.36,2.32-7.51,4.38-4.93,4.72-10.56,8.7-16.64,11.79-4.61,2.34-12.18,3.53-13.55,9.54Z"/><path class="cls-18" d="M703.79,640.24c13.54-13.34,28.15-27.55,46.87-30.85,23.72-4.18,46.82,10.32,70.89,11.19-35.66-14.13-74.88-19.16-112.96-14.5-3.25.4-6.56.88-9.53,2.25-2.74,1.26-5.08,3.21-7.45,5.07-13.64,10.68-29.08,18.79-43.89,27.79-14.81,8.99-29.31,19.14-39.9,32.86-10.59,13.72-16.89,31.58-13.5,48.57,1.74-7.67,1.33-15.68,2.73-23.42s5.22-15.77,12.41-18.96c-8.49,12.38-11.73,28.23-8.79,42.95,1.28-16.14,3.34-33.93,15.35-44.79-7.85,14.41-11.38,31.13-10.02,47.48.23,2.74.72,5.72,2.79,7.53.85-2.88.21-5.94-.21-8.91-1.86-13.38,1.16-27.39,8.37-38.82-3.18,12.76-3.82,26.14-1.89,39.15,2.54-4.14,1.58-9.4,1.19-14.24-1.27-15.75,4.91-31.94,16.34-42.84-5.11,15.66-10.26,31.6-10.55,48.07,3.49-4.03,4.24-9.67,5.05-14.94,3.17-20.59,10.96-42.46,28.89-53.06.72,1.63-.81,3.31-2.13,4.51-13.9,12.65-18.75,31.81-22,49.63-.18.98-1.58,5.41-.15,5.85.98.3,5.24-4.49,6.09-5.26,4.33-3.91,8.64-7.84,12.93-11.79,8.52-7.84,16.98-15.74,25.38-23.72,9.31-8.85,18.55-17.78,27.7-26.8Z"/><path class="cls-18" d="M363.63,778.15c2.81-2.78,5.88-5.69,9.78-6.32,2.01-.32,4.07,0,6.05.49,4.3,1.06,8.52,2.92,12.94,2.75,2.62-.1,5.14-.91,7.7-1.48,2.69-.6,5.43-.93,8.17-1.24,25.79-2.87,51.87-3.17,77.72-.89,3.27.29,6.99.47,9.34-1.82-13.75-3.23-27.74-5.39-41.82-6.47-5.47-.42-11.41-.86-15.48-4.54,1.71-.62,3.54-.84,5.35-1.01,22.45-2.16,45.44,1.64,66,10.92-14.91-7.84-30.74-13.91-47.07-18.03-1.05-.27-2.17-.56-2.91-1.36s-.81-2.29.13-2.84c.52-.3,1.16-.23,1.75-.16,18.45,2.48,36.26,9.53,51.41,20.35.81-.88.64-2.34-.05-3.32s-1.78-1.58-2.83-2.15c-10.84-5.9-21.72-11.82-33.24-16.24-11.52-4.42-23.78-7.31-36.12-6.93,4.54,1.25,9.07,2.5,13.61,3.75-4.12,1.45-8.63.54-12.96-.05-8.96-1.24-18.11-1.07-27.02.48-1.9.33-3.82.74-5.51,1.67-1.33.74-2.46,1.78-3.76,2.56-6.22,3.74-14.11.77-21.36.43-5.38-.26-10.9,1.08-15.28,4.21-5.37,3.83-6.31,8.59-8.28,14.34-1.61,4.7-1.53,10.22,3.76,12.92Z"/><path class="cls-18" d="M425.9,915.97c-5.13-10.48-9.27-21.44-12.33-32.7-1.82-6.69-3.26-13.48-5.32-20.09-4.84-15.55-13.1-30.02-24.03-42.09-5.87-6.48-12.58-12.39-16.8-20.05-3.12-5.66-4.73-12.14-4.64-18.6.03-2.54.32-5.12-.32-7.57-.84-3.2-3.13-5.77-4.99-8.5-5.83-8.58-7.54-19.21-9.11-29.47-2-13.06-4-26.18-4.1-39.39-.03-3.62-.04-6.9.14-10.51.6-11.83,1.25-23.82,3-35.55s4.58-23.19,9.45-34.28c3.35-10.16,9.35-17.16,16.35-26.16,27-36,66-65,71-110s-10-98,27-132c-23-10-42,19-58,33-13,11-23,25-35,37-49,48-123,86-136,155,11-27,27-53,50-71-16,20-31,40-43.03,63.21-7.53,14.24-14.08,30.5-9.83,45.94,4.14,15.02,17.41,25.49,25.71,38.67-10.83-5.95-19.83-15.18-25.51-26.15-1.72,4.86,2.11,9.79,5.74,13.45,17.76,17.9,38.27,34.61,47.55,58.06,2.35,5.94,4.15,12.33,3.43,18.67-.54,4.78-2.31,9.33-3.41,14.01-1.68,7.18-1.77,14.63-2.13,22-.85,17.81-3.28,35.55-7.25,52.93-2.64,11.56-5.97,23.17-5.61,35.02.34,11.15,3.95,21.9,7.52,32.47,1.83,5.41,3.68,10.87,6.71,15.71,6.77,10.8,18.57,17.27,30.17,22.55-9.65-11.43-17.99-24.15-22.98-38.24s-6.5-29.66-2.63-44.11c3.09,1.25,3.01,5.54,2.77,8.86-1.09,15.48,6.04,30.22,12.98,44.1,2.89,5.78,5.83,11.64,10.11,16.49,4.34,4.93,9.88,8.63,15.41,12.18,8.6,5.52,17.49,10.87,27.3,13.73,14.57,4.25,30.76,2.62,44.18-4.47,4.69-2.48,11.88-4.74,16.49-2.12Z"/><path class="cls-18" d="M742.11,588.92c14.4-.77,28.67,1.08,42.94,3.41,14.27,2.33,28.53,5.13,42.91,6.24,7.92.61,15.96.72,23.62,2.85,16.15,4.47,28.55,17.23,39.15,30.21s20.61,27.03,34.83,35.9c5.4,3.36,11.46,5.94,17.82,6.18s13.02-2.12,16.92-7.15c5.35-6.89,7.81-15.5,11.77-23.28,7.99-15.71,16.68-32.19,31.65-41.48,3.4-2.11,7.23-3.83,11.23-3.65,3.28.15,6.35,1.56,9.29,3.02,11.31,5.64,22.36,12.76,29.45,23.23,2.62,3.86,4.64,8.1,6.64,12.31,3.99,8.36,7.98,16.75,11.03,25.5,1.57,4.51,2.89,9.1,4.2,13.69,3.35,11.71,6.71,23.42,10.06,35.13,2.28,7.98,2.74,16.42,5.96,24.06,2.06,4.87,4.15,9.99,3.74,15.26-.37,4.82-2.81,9.23-5.51,13.24-16.9,25.18-46.79,41.11-77.12,41.1-4.23,0-9.56.4-11.01,4.37-.33.89-.39,1.85-.44,2.8-1.48,25.64,2.11,52.02,3.47,77.66,2.06,38.79,9.18,77.31,21.13,114.27.42,1.3.85,2.76,1.86,3.68,1.28-1.33,2.69-2.52,4.09-3.71,13.16-11.12,26.5-22.36,42-29.89,1.81-.88,3.83-1.72,5.77-1.22,1.99.52,3.35,2.29,4.55,3.96,1.61,2.23,3.22,4.46,4.54,6.87,1.42,2.6,2.52,5.41,4.42,7.68,3.32,3.96,8.66,5.74,12.17,9.54,1.94,2.1,3.23,4.71,4.97,6.98,2.58,3.34,6.2,5.88,10.22,7.17,4.3-11.94,16.27-17.75,26.49-25.27,2.65-1.95,1.14-6.04.76-9.31-.59-5.03,2.22-9.77,4.92-14.06,3.3-5.25,6.6-10.49,9.9-15.74.96-1.52,1.94-3.13,2-4.93.03-.79-.13-1.59-.05-2.38.29-2.78,3.53-4.43,6.3-4.11s5.16,2.01,7.5,3.54c13.6,8.93,29.28,14.04,44.8,18.91,24.17,7.57,48.46,14.77,72.85,21.58,4.84,1.35,9.75,2.7,14.77,2.74,7.88.07,16.17-3.66,19.71-10.7.32-.63.6-1.29.63-2,.1-2-1.72-3.51-3.4-4.59-15.54-10.06-34.13-14.13-52.39-17.16s-36.89-5.26-54.03-12.25c-11.74-4.79-22.49-11.69-32.99-18.8-7.8-5.28-13.99-12.58-20.09-19.77-5.01-5.9-5.39-15.89-6.44-23.55s-2.91-13.31-4.55-20.88c-3.87-17.93-15.78-32.87-24.57-48.97-8.4-15.41-11.12-33.24-16.67-49.89-2.08-6.25-2.05-12.98-1.96-19.57.18-12.55.49-25.14-1.02-37.6-.38-3.14-.87-6.32-.38-9.44.34-2.12,1.12-4.13,1.83-6.16,5.72-16.38,6.94-34.53,2.33-51.26-2.73-9.92-5.49-20.01-5.35-30.3.14-10.29,3.56-21,11.36-27.72,5.37-4.63,13.25-8.37,13.54-15.45.03-.6,0-1.23.25-1.78.34-.74,1.12-1.15,1.86-1.5,13.29-6.26,28.91-6.31,41.99-12.99,5.66-2.89,10.97-7.06,17.29-7.7,7.07-.71,13.69,3.14,19.87,6.66,20.37,11.63,41.95,21.16,64.27,28.39-3.94-8.29-18.24-5.46-23.26-13.14,12.68,1.31,24.93,6.52,34.67,14.74,3.54,2.99,7.26,6.58,11.89,6.58-3.21-7.31-8.25-13.81-14.54-18.72-2.84-2.22-6.32-5.15-5.31-8.61,9.44,8.99,18.88,17.97,28.32,26.96-8.51-22.39-29.57-37.37-50.64-48.76-4.13-2.23-8.36-4.4-12.95-5.38-7.18-1.53-15.44-.27-21.15-4.88,13.79-10.82,25.37-24.07,36.16-37.89,9.76-12.5,19.52-24.99,29.28-37.49,13-12.76,23.33-27.04,31.32-42.38,4-7.67,7.42-15.6,10.3-23.74,8.36-25.16,14.36-51.16,13.36-78.16,20,35,23,78,14,117,21-45,4-95-11-139,17,22,19,51,25,78,1-5,3-11,4-16,2-21-10-42-4-63,28,57,52,121,105,161-1-5-4-8-8-11-34-23-44-60-62-94-3-6-11-9-11-17,42,17,61,60,82,98,9,15,18,29,29,42-13-34-38-63-51-97,28,28,50,65,57,104-1-2,0-4,2-5,1,0,1,1,2.24,2.39.38,1.42.59,2.92,1.31,4.2.72,1.29,2.14,2.34,3.58,2.06-1.07-3.07-1.71-6.3-1.88-9.55-.25-2.09.75-3.09,2.38-1.63,6.43,5.78,12.19,12.29,18.06,18.68s11.83,12.66,18.71,17.92c9.62,7.37,20.25,13.42,27.42,23.2,7.92,10.79,12.88,23.73,14.2,37.05.85,8.5.24,17.1,1.27,25.58.68,5.65,2.09,11.19,3.58,16.69,3.65,13.42,7.89,26.71,10.29,40.41,3.21,18.36,3.79,37.27,3.62,55.91,8.93-8.95,17.5-18.25,25.69-27.88,2.83-3.33,5.63-6.72,7.7-10.56,1.48-2.74,2.6-5.71,4.58-8.11,2.1-2.54,5.06-4.3,6.94-7,1.54-2.22,2.23-4.91,3.13-7.46,2.55-7.3,6.91-13.84,9.65-21.07,2.4-6.35,3.52-13.19,3.25-19.98-.17-4.33-1.1-9-4.37-11.84-.41-.35-.88-.74-.92-1.27-.05-.7.73-1.22,1.42-1.18s1.3.47,1.87.87c8.39,6.06,17.39,13.02,19.62,23.13.47,2.14.61,4.34.99,6.5.09.49.25,1.06.72,1.24.75.28,1.35-.66,1.56-1.43,1.71-6.26,1.15-13.96-2.83-19.08-4.9-6.31-10.18-12.9-17.64-15.75-1.63-.62-3.34-1.05-4.89-1.86-3.06-1.59-5.21-4.46-7.25-7.24-.31-.42-.63-.95-.42-1.43.36-.8,1.56-.4,2.27.1,6.29,4.47,12.57,8.93,18.86,13.4,3.97,2.82,8,5.7,10.96,9.56,1.7,2.22,3.51,5,6.3,5.02-6.16-7.37-12.62-14.49-19.35-21.35-5.22-5.32-10.62-10.49-15.14-16.42-3.79-4.96-6.91-10.39-10.02-15.81-2.49-4.34-5-8.7-6.6-13.44-3.7-10.92-2.31-22.85-.58-34.25,2.68-17.68,5.96-35.81,9.4-53.36,2.57-13.11,5.1-26.9.98-39.61-18.64-35.36-46.64-64.36-76.64-90.36,30,7,46,39,66.63,59.38,8.56,11.47,15.72,23.74,19.53,37.46.88-12.49-6.12-24.06-13.16-34.48-8.01-14.37-20.01-24.37-30.01-36.37,15,8,20,24,33,34-26-38-72-60-103-91-68-67-160-97-250.19-97.15-12.09.41-24.06,1.77-35.81,4.15,9.5,3,22,8.5,30.5,16.12,8.51,7.62,13.07,17.37,6.54,28.88-2.01,2-9.04-3-11.04-6-5.5-7.75-11.81-14.06-18.72-19.12-20.72-15.17-46.81-19.04-72.4-16.53-11.19.83-22.45,3.29-33.62,6.88-84.94,24.58-149.49,84.16-193.33,157.55-7.31,12.23-14.04,24.85-20.19,37.7-5.73,12.51-12.73,25.51-16.73,39.51-16.25-19.5-34-38.75-53.22-56.3-9.61-8.77-19.59-17.13-29.97-25.18-37.81-29.52-79.81-58.52-129.81-64.52-13.5-1.67-26.83-2.28-40-1.93-13.17.34-26.17,1.64-39.22,3.69-31.39,7.12-66.83,10.43-99.43,19.33-10.89,2.97-21.46,6.55-31.38,10.99-71.97,25.91-79.97,112.91-64.97,177.91,2,7,8,14,13,17,22,16,45,26,67.77,37.3,11.11,5.55,22.09,10.61,33.32,14.82,11.18,4.21,22.6,7.57,34.49,9.46,16.21.21,31.82,1.82,47.28,4.39,15.46,2.58,30.77,6.13,46.4,10.23,11.9,2.58,23.8,5.17,35.65,7.71Z"/><path class="cls-29" d="M1119.52,1015.55c16.85,32.09,31.51,65.34,43.83,99.43,5.53,15.29,10.74,31.06,20.6,43.98,5.47,7.18,12.23,13.27,18.41,19.85,21.69,23.06,36.14,51.82,54.05,77.91,94.85,136.93,264.49,186.13,402.97,266.03,2.35,1.36,23.08,16.13,25.29,17.7,12.97,9.24,44.52,45.21,46.35,47.2,0,0,25.27,39.18,28.97,45.6,5.26,9.13,0,67.61,0,78.96"/><path class="cls-3" d="M1441.05,596.07c.99-2.89,2.94-5.2,5.14-7.34,17.02-30.72,50.02-46.72,84.83-43.18,2.15.12,4.28.4,6.37.86,2.09.46,4.14,1.11,6.14,1.98-1.95.34-3.92.41-5.9.38s-3.96-.14-5.95-.18c-32.48-.59-69.48,8.41-82.42,41.77"/></g><g id="face_hair_details"><path class="cls-55" d="M596.77,1039.13l.6,3.76s36.76,25.18,69-1.78c1.27-1.06,2.78-1.79,4.4-2.12,10.51-2.12,54.97-16.79,75.37-59.94,0,0-7.98,4.97-13.85,4.52s-26.05-.15-39.15,5.27l-6.63.45-22.14,9.64s-13.4,5.87-13.85,5.87-1.81.75-1.81.75c0,0-25,.6-50.29,31.02l-1.66,2.56Z"/><path class="cls-7" d="M597.97,1034.16s-3.92-4.52-6.78-1.36.1-29.44,1.51-39.45c1.19-8.49,4.28-26.09,25.45-23.19,15.36,2.11,28.01-14.46,28.01-14.46,0,0,10.69-19.27,63.55,6.02,0,0,33.58,13.7,37.19,13.55s-21.23,4.07-21.23,4.07l-29.66,4.52-18.52.45-13.25,4.37-5.87,3.16-7.83,1.51s-16.26,7.83-1.96,10.09c0,0-24.09-4.82-50.6,30.72Z"/><path class="cls-45" d="M636.26,969.12c-1.11-.06-2.38-.06-3.11.78-.8.93-.44,2.45.44,3.3s2.12,1.2,3.3,1.52c1.92.52,3.85,1.04,5.77,1.55.93.25,1.92.5,2.83.19.95-.33,1.59-1.19,2.36-1.84,1.07-.9,2.42-1.39,3.7-1.96s2.57-1.29,3.33-2.47.77-2.94-.3-3.84c-1.2-1-3-.52-4.46.03-2.35.88-4.71,2.11-7.12,2.77-2.13.58-4.57.09-6.75-.04Z"/><path class="cls-12" d="M647.4,1016.48c-.33.48-.65,1.09-.4,1.62.37.75,1.47.58,2.27.32,1.91-.62,3.88-1.08,5.87-1.37,1.21-.17,2.45-.29,3.58-.75,2.47-1,4.01-3.44,5.38-5.74.28-.48.57-.98.6-1.53.05-1.13-1.09-2.02-2.21-2.11-1.52-.12-2.91.82-4.05,1.82-3.6,3.14-8.19,3.6-11.03,7.73Z"/><path class="cls-12" d="M681.46,1002.28c-.23.29-.42.62-.41.99.02.82.95,1.26,1.74,1.5,1.2.38,2.45.76,3.69.59,1.2-.16,2.26-.81,3.4-1.24.96-.36,1.98-.56,2.94-.92s1.9-.91,2.44-1.79.57-2.12-.14-2.86c-.4-.42-.98-.62-1.55-.72-1.71-.3-3.46.25-5.04.98-1.45.67-2.81,1.51-4.32,2.03-1.1.37-1.94.42-2.74,1.43Z"/><path class="cls-12" d="M698.62,996.67c-.64.31-1.19.87-1.31,1.57-.11.66.17,1.32.44,1.93.16.35.33.72.62.98.69.61,1.75.39,2.61.05,2.45-.97,4.61-2.59,7.09-3.46,2.2-.77,4.89-1.14,6.04-3.18.22-.38.36-.82.31-1.26-.11-.92-1.07-1.54-2-1.58s-1.81.34-2.65.71c-2.04.91-4.09,1.81-6.13,2.72-1.64.73-3.49.79-5.02,1.54Z"/><path class="cls-37" d="M610.75,935.96c.53.31,1.09.6,1.52,1.04.65.66.93,1.59,1.34,2.42.41.83.96,1.59,1.26,2.47.28.82.33,1.71.32,2.58,0,1.84-.23,3.69-.66,5.48-.37.17-.82,0-1.09-.31s-.39-.71-.48-1.1c-.27-1.1-.41-2.23-.42-3.37-1.05-.33-2.15-.69-2.92-1.47-1.31-1.34-1.28-3.44-1.48-5.31-.08-.75-1.03-3.22-.44-3.73.86-.76,2.37.9,3.04,1.3Z"/><path class="cls-47" d="M623.26,914.59c.97-.13,1.21-1.4,1.26-2.37.23-3.89,1.47-7.93,4.39-10.51s7.79-3.15,10.66-.51c1.72,1.59,2.49,4.03,4.25,5.58,2.07,1.83,5.17,2.08,7.82,1.34s4.98-2.34,7.25-3.92c1.49-1.03,3.16-2.44,2.95-4.24-.19-1.6-1.78-2.6-3.26-3.25-7.25-3.17-15.51-3.31-23.32-2.01-3.02.5-6.09,1.26-8.54,3.09-2.69,2.02-4.27,5.16-4.89,8.41-.25,1.32-1.2,8.73,1.43,8.37Z"/><path class="cls-21" d="M560.57,888.87c-.73,4.77-1.47,9.54-2.2,14.32-.6,3.92-1.21,7.88-.97,11.84.35,5.9,2.58,11.56,5.56,16.67,1.57,2.7,3.42,5.32,5.95,7.15s5.88,2.75,8.85,1.79c2.27-.73,4.07-2.44,5.79-4.09,2.01-1.94,4.02-3.88,6.03-5.82.48-.47,1.01-1.06.88-1.72-5.22-.25-10.45-.49-15.67-.74-.59-.03-1.3.02-1.57.54-.13.27-.11.58-.18.87-.15.59-.78,1.01-1.39.92-2.72-3.31-5.81-6.22-8.37-9.66-1.18-1.58-2.36-3.22-2.95-5.1-.67-2.16-.51-4.49-.34-6.75.81-10.97,1.63-21.95,2.44-32.92.39-5.19.77-10.39.64-15.6-.29-11.82-3.22-23.39-6.13-34.84,4.32,21.01,6.9,41.94,3.64,63.14Z"/><path class="cls-8" d="M580.8,923.97c4.62,1.82,9.56,3.29,14.49,2.68.14-.79-.48-1.56-1.22-1.88s-1.57-.32-2.38-.36c-1.85-.11-3.67-.53-5.42-1.14-1.88-.66-3.67-1.55-5.45-2.44-1.97-.98-3.95-1.96-5.92-2.95-1.63-.81-3.26-1.62-4.77-2.64-.89-.6-3.93-3.69-4.49-2.39-.64,1.48,2.53,3.79,3.4,4.53,3.45,2.92,7.59,4.95,11.77,6.6Z"/><path class="cls-40" d="M534.4,783.31c3.29,2.84,6.3,5.98,9.3,9.12-2.78-5.15-6.54-9.76-11.01-13.54-.58-.49-1.18-.97-1.87-1.3-.57-.27-.99-.44-1.5-.17.64,2.45,3.26,4.3,5.08,5.87Z"/><path class="cls-32" d="M480.46,819.06c-.32.6.06,1.38.64,1.74s1.29.4,1.97.44c.2.01.43.01.57-.14.09-.1.12-.24.15-.37.12-.64.24-1.28.35-1.93,1.13.12,2.2.94,3.31.68.72-.17,1.26-.77,1.58-1.44.31-.64.45-1.4.26-2.08s-.77-1.29-1.47-1.4c-.62-.09-1.24.19-1.79.49-.41.22-.83.48-1.07.88-.25.42-.28.95-.51,1.38-.63,1.14-3.25.36-3.99,1.74Z"/><path class="cls-44" d="M471.91,799.28c9.73-.75,19.5.37,29.13,1.92,5.31.85,10.67,1.86,15.53,4.16-1.41-2.46-4.44-3.4-7.18-4.12-5.99-1.57-12.03-3.15-18.22-3.5-2.38-.13-4.77-.09-7.15-.25-2.2-.16-4.39-.5-6.6-.63-8.59-.54-17.05,2.03-25.16,4.89-6.13,2.16-15.15,5.06-18.85,10.88.82.65,5.31-2.86,6.38-3.47,2.36-1.35,4.79-2.56,7.27-3.65,5.02-2.2,10.28-3.86,15.66-4.95,3.03-.61,6.1-1.04,9.19-1.28Z"/><path class="cls-32" d="M429.66,858.49c-.47.42-.95.85-1.27,1.39s-.44,1.24-.17,1.81,1.02.91,1.58.62c1-.54.5-2.28,1.39-2.99.28-.22.64-.29.97-.44.82-.36,1.39-1.23,1.39-2.13,0-.17-.02-.35-.15-.46-.08-.07-.19-.11-.29-.13-.64-.13-1.31.15-1.81.58s-.85.99-1.19,1.55l-.45.19Z"/><path class="cls-32" d="M437.77,851.82c-.4.14-.82.31-1.09.64s-.34.86-.05,1.17c.33.34.95.21,1.25-.16s.35-.88.31-1.35c-.25,0-.5-.01-.75-.02"/><path class="cls-32" d="M730.1,713.69c-.5-.28-1.11.14-1.43.61s-.55,1.06-1.06,1.32c-.18.09-.39.14-.56.25-.49.34-.41,1.11-.11,1.63.37.63.98,1.12,1.68,1.34.53.17,1.18.24,1.46.72.11.19.14.42.29.58.36.39,1,.07,1.4-.28,1.03-.91,1.92-1.99,2.61-3.19.18-.31.35-.64.36-1,.01-.45-.23-.86-.52-1.2-.94-1.08-2.51-1.57-3.89-1.2"/><path class="cls-18" d="M486.33,1014.35c4.24,4.81,8.63,9.53,12.09,14.92,3.46,5.39,37.57,54.98,85.48,90.84,9.18,6.87-9.22,5.92-88.85-39.92-7.16-6.03-14.14-12.25-21.12-18.48-10.08-9-20.84-19.29-22.2-32.73-.29-2.84-.13-5.73-.79-8.51-2.33-9.93-14.11-15.78-15.58-25.87,1.67,1.17,3.55,2.04,5.52,2.56.75-2.76-.77-5.66-2.74-7.73s-4.43-3.66-6.27-5.85c-3.43-4.09-4.26-9.68-6.35-14.6-1.38-3.26-3.35-6.28-4.39-9.67-1.35-4.38-1.06-9.08-.77-13.65.37-5.72.74-11.44,1.12-17.16.05-.76.13-1.59.68-2.12.78-.75,2.15-.46,2.9.32s1.05,1.87,1.32,2.91c2.8,10.54,6.6,20.81,11.34,30.63,2.86-4.08.09-9.55-2.23-13.96-1.96-3.73-3.59-7.63-4.87-11.65-.57-1.79-3.59-10.69-.07-7.05,2.4,2.48,3.78,8.22,5.33,11.38,1.85,3.75,3.76,7.47,5.74,11.15,7.99,14.83,17.06,29.08,27.13,42.58,5.56,7.45,11.42,14.67,17.56,21.65Z"/><path d="M486.33,1014.35c5.28,5.74,10.26,11.74,14.45,18.33,19.54,27.48,42.24,52.85,67.9,74.73,4.47,3.81,10.51,8.57,15.2,12.13,3.28,2.18,4.24,5.11-1.66,3.88-11.41-2.83-22-8.15-32.6-13.08-18.76-9.1-37.09-19.06-55.14-29.46,0,0-20.31-17.71-20.31-17.71-9.86-8.8-21.17-18.87-23.24-32.79-.69-4.43,0-8.88-2.09-12.91-3.83-7.94-12.95-13.43-14.38-22.72,0,0-.32-2.11-.32-2.11,2.1,1.56,4.4,3.05,6.96,3.66,0,0-1.1.64-1.1.64,1.21-6.24-6.37-9.15-9.46-13.63-2.2-3.03-3.28-6.75-4.42-10.19-1.33-4.75-4.11-8.65-5.68-13.35-1.52-4.86-1.09-9.9-.76-14.69l1.01-14.49.13-1.81c.05-.59.05-1.26.33-1.98.58-1.62,2.77-1.87,4-.8,1.2.99,1.48,2.38,1.8,3.52,2.74,10.51,6.48,20.75,11.15,30.56l-.75-.06c3.28-5.29-1.27-11.11-3.42-16.01-1.9-4-3.37-8.18-4.58-12.44-.35-1.48-.88-2.87-.71-4.45.65-2.04,3.02,1.43,3.41,2.19,2.11,3.91,3.03,8.28,5.27,12.13,13.04,26.3,29.63,50.88,48.98,72.95h0ZM486.33,1014.35c-19.45-21.98-36.1-46.55-49.31-72.79-2.7-4.33-3.37-9.8-6.63-13.77-.43-.46-1.26-1.15-1.21-.59-.11,1.35.39,2.85.74,4.18,1.24,4.2,2.74,8.35,4.66,12.3,2.44,5.16,7.35,11.88,3.08,17.42-4.4-8.93-8.04-18.23-10.85-27.79-.78-2-.87-4.91-2.39-6.36-.67-.51-1.77-.62-2.1.3-.28.68-.25,2.58-.34,3.4,0,0-.87,14.5-.87,14.5-.29,4.8-.62,9.67.83,14.12,1.55,4.47,4.49,8.65,5.8,13.29,1.14,3.41,2.12,6.81,4.21,9.7,3.52,4.59,11.42,8.04,9.8,15.12,0,0-.23.86-.23.86l-.87-.23c-2.08-.54-4.05-1.45-5.81-2.68l1.43-.88c1.57,8.96,10.46,14.05,14.32,22.16,2.21,4.13,1.65,9.09,2.3,13.46,2.11,13.41,12.83,22.93,22.52,31.68-.13-.11,20.69,18.15,20.08,17.66,22.51,12.88,45.11,25.71,68.77,36.36,4.74,2.08,9.53,4.1,14.44,5.67,2.1.61,4.25,1.38,6.44,1.28.28-.02.48-.16.44-.15-.31-1-1.44-1.66-2.24-2.35-4.71-3.66-10.58-8.34-15.13-12.3-25.44-22.21-48.04-47.65-67.51-75.21-4.17-6.61-9.12-12.62-14.38-18.38h0Z"/><path class="cls-26" d="M354.16,907.87c1.62.48,3.99.4,4.28-1.26.2-1.13-.83-2.07-1.76-2.75-4.44-3.24-9.11-6.19-13.94-8.81-3.59-1.95-7.29-3.73-10.6-6.12-3.07-2.22-5.75-4.93-8.19-7.83-10.84-12.9-16.79-29.81-16.43-46.65.02-.89-.04-1.96-.81-2.41-1.26-.74-2.52.99-2.86,2.41-1.36,5.67-.56,11.64.82,17.31,2.63,10.81,7.45,21.06,13.96,30.08,3.29,4.56,7.01,8.8,11.11,12.64,1.95,1.83,10.61,10.81,12.05,6.74,3.88,2.8,7.73,5.27,12.38,6.64Z"/><path class="cls-32" d="M254.78,604.63c-1.65,7.06-.6,14.72,2.9,21.07s9.41,11.33,16.27,13.71c-1.63-4.67-4.4-8.88-6.13-13.52-2.14-5.74-2.59-11.9-2.25-17.97s3.13-12.65,2.67-18.33-3.78-3.16-6.5.16c-3.31,4.03-5.78,9.84-6.97,14.88Z"/><path class="cls-18" d="M1686.3,554.78c1.51,1.87,2.69,4,4.22,5.87,2.31,2.84,5.33,4.99,8.18,7.3,3.73,3.03,7.21,6.36,10.68,9.69,1.46,1.41,2.93,2.82,4.17,4.43,2.77,3.59,4.26,7.99,5.52,12.35,1.23,4.24,2.3,8.54,3.19,12.86,1.34-3.87.83-8.1.3-12.16-.29-2.22-.58-4.46-1.26-6.6-.94-2.97-2.61-5.66-4.26-8.31-1.81-2.92-3.64-5.85-5.96-8.39-5.82-6.36-14.36-9.8-19.96-16.36-1.47-1.73-2.72-3.65-4.35-5.22-1.73-1.67-3.87-2.93-5.4-4.79-1.35-1.64-2.24-3.76-4.07-4.84-.71-.42-1.63-.64-2.35-.25-3.41,1.83,9.96,12.72,11.33,14.42Z"/><path class="cls-18" d="M1547.3,282.52c1.43.66,3.05.79,4.62.97,17.57,1.93,33.75,10.14,49.3,18.54,14.06,7.6,28.03,15.52,40.68,25.3s24,21.52,31.73,35.52c-3.06-12.72-12.64-22.73-22.2-31.67-26.6-24.87-57.25-47.28-92.83-55.03-3.34-.73-8.86-2.31-12.17-.66s-1.86,5.76.88,7.03Z"/><path class="cls-32" d="M605.51,543.29c1.57.26,3.35.46,4.61-.53-1.2-.96-2.67-1.51-4.13-1.99-3.03-1.01-6.14-1.78-9.23-2.56-16.36-4.1-32.71-8.2-49.07-12.3-3.51-.88-7.01-1.76-10.56-2.47-3.04-.61-7.71-2.07-10.7-1.2,4.07,2.6,10.14,3.77,14.76,5.3,5.09,1.68,10.21,3.26,15.35,4.74,10.3,2.97,20.7,5.54,31.19,7.72,5.9,1.23,11.83,2.33,17.78,3.3Z"/><path class="cls-32" d="M603.01,527.04c.29-1.24-1.16-2.11-2.35-2.54-21.39-7.8-43.05-14.89-64.91-21.23-4.22-1.23-6.8,2.6-2.76,4.9,4.85,2.76,11.11,4.23,16.38,5.99,11.12,3.72,22.44,6.82,33.91,9.29,6.54,1.41,13.12,2.6,19.74,3.59Z"/><path class="cls-32" d="M587.67,554.8c3.47.48,6.94,1.06,10.3,2.06,3.88,1.14,7.63,2.83,11.65,3.28.92.1,2.07.01,2.45-.84.4-.89-.42-1.85-1.23-2.4-1.99-1.35-4.35-2.03-6.66-2.69-4.89-1.39-9.98-3.47-14.98-4.35-4.33-.76-6.97,4.93-1.53,4.93Z"/><path class="cls-32" d="M688.87,569.07c12.53,3.9,26.1,2.25,39.01,4.57,12.26,2.2,24.15,7.98,36.55,6.8.57-2.11-2.01-3.59-4.11-4.21-12.03-3.57-24.36-6.12-36.82-7.63-6.29-.76-12.61-1.25-18.93-1.48-5.37-.19-10.86-.94-15.7,1.96Z"/><path class="cls-32" d="M960.45,431.63l2.59.06c-.09,1.03-.18,2.07-.27,3.1.77.7,2.05.5,2.86-.15s1.26-1.64,1.7-2.58c3.71-7.96,8.44-15.45,14.04-22.22.98-1.18,2.01-2.4,2.39-3.88s-.12-3.32-1.53-3.94c-1.86-.82-3.81.85-5.17,2.37-5.95,6.67-18.53,17.55-16.61,27.24Z"/><path class="cls-31" d="M1112.82,643.41c-1.03-5.18-2.47-10.3-2.86-15.57-.19-2.6-.12-5.22-.57-7.79-.63-3.59-2.25-6.93-3.84-10.21-2.03,17.53,5.57,34.7,6.8,52.3.21,3.03-1.46,12.49,1.21,14.2,1.76-4.46,1.22-11.16,1.11-15.97-.13-5.69-.75-11.38-1.86-16.96Z"/><path class="cls-31" d="M1180.25,512.09c17.48-7.19,33.17-18.05,48.69-28.84,5.09-3.54,10.19-7.08,15-10.99,23.19-18.84,38.68-45.29,53.66-71.14,6.65-11.47,13.38-23.14,16.6-36.01-13.99,20.48-25.93,42.3-39.97,62.74-14.04,20.45-30.48,39.76-51.41,53.07-10.12,6.44-21.15,11.38-31.18,17.97-7,4.6-13.94,10.17-22.27,11.01-2.42.24-13.16,2.62-6.34,5.5,4.73,2,12.9-1.55,17.21-3.33Z"/><path class="cls-31" d="M1247.11,440.75c10.41-9.86,20.85-19.75,29.93-30.84,14.1-17.21,24.68-36.97,35.17-56.58,7.69-14.38,15.48-29.04,18.57-45.05-2.01,4.6-4.03,9.22-6.73,13.45-4.06,6.36-9.54,11.65-14.36,17.46-7.69,9.27-13.66,19.81-19.89,30.12-9.27,15.32-19.2,30.25-29.76,44.71-5.95,8.15-12.13,16.18-19.17,23.41-7.8,8-16.59,14.94-25.36,21.86-8.09,6.38-16.17,12.76-24.26,19.15-1.07.84-2.25,1.97-2.01,3.31.44,2.44,12.57-4.73,14.26-5.71,5.32-3.08,10.39-6.57,15.28-10.3,10.02-7.66,19.2-16.33,28.35-24.99Z"/><path class="cls-31" d="M1033.78,537.55c31.25,55.59,53.35,116.3,65.15,178.97,1.68,8.94,3.33,18.32,8.92,25.49-5.93-50.91-19.53-100.93-40.19-147.83-17.25-39.16-39.3-75.98-61.29-112.69-5.55-9.27-11.11-18.54-16.66-27.81-.92-1.54-5.24-11.17-7.74-9.33-2.24,1.65,2.17,8.29,2.91,9.7,9.59,18.3,20.47,35.88,31.2,53.53,6.03,9.92,12.02,19.87,17.71,29.99Z"/><path class="cls-31" d="M1038.14,571.05c2.91,6.28,5.95,12.49,8.89,18.75,19.74,42.06,34.82,86.31,44.89,131.67,3.33-14.77-3.1-29.74-7.87-44.11-7.08-21.35-10.69-43.79-18.89-64.73-2.84-7.25-6.21-14.28-9.65-21.26-5.05-10.26-10.26-20.45-15.54-30.6-5.32-10.24-10.18-21.17-16.36-30.9-3.98,1.16,3.79,16.23,4.93,19.04,3.02,7.46,6.22,14.84,9.61,22.14Z"/><path class="cls-9" d="M1053.26,719.89c1.24-.55,2.55-1.1,3.45-2.13,2.29-2.6.9-6.66-.7-9.73-4.08-7.81-8.91-15.23-14.41-22.13-4.02-5.05-8.61-10.3-9.08-16.74,1.81-.7,3.81.22,5.53,1.11,3.93,2.03,7.86,4.07,11.79,6.1,1.63.85,3.29,1.71,4.61,2.99,1.46,1.42,2.42,3.25,3.35,5.06,3.26,6.31,6.52,12.61,9.77,18.92,1.61,3.12,3.27,6.44,3.02,9.94-.25,3.56-2.66,6.87-5.96,8.22-1.99.81-4.18.93-6.3,1.27-8.77,1.41-16.47,6.66-22.99,12.69s-12.19,12.95-18.9,18.77c-1.11.96-5.27,5.3-6.65,3.22-.99-1.5,3.38-5.08,4.36-6.16,3.81-4.18,7.69-8.3,11.79-12.2,8.08-7.7,17.05-14.64,27.3-19.2Z"/><path class="cls-9" d="M999.34,679.12c2.46.81,4.45,2.62,6.58,4.1,3.46,2.41,7.4,4.02,11.02,6.18s7.04,5.07,8.49,9.02c1.15,3.13,1.17,6.99,3.78,9.06,1.09-2.21.49-4.83-.13-7.22-1.31-5.04-2.75-10.32-6.37-14.07-2.28-2.36-5.26-3.91-8.24-5.28-3.55-1.62-7.19-3.04-10.9-4.25-2.74-.89-5.59-1.67-8.47-1.48-1.62.11-8.27,1.97-6.5,4.38.66.91,8.79-1.09,10.74-.45Z"/><path class="cls-9" d="M1014.4,626.52c1.1-.91,2.27-1.82,3.66-2.13,1.05-.24,2.15-.12,3.22.05,4.65.76,9.14,2.52,13.05,5.14,5.06,3.38,9.08,8.09,13.02,12.73,10.29,12.1,20.82,24.62,25.74,39.72-7.64-2.77-9.72-12.67-15.79-18.08-3.37-3-8.28-5.04-9.27-9.44-.53-2.36,0-5.41-2.06-6.67-1.75,1.01-1.67,3.55-1.11,5.49,1.39,4.83,4.4,9.18,8.42,12.2,1.06.8,2.25,1.56,2.82,2.77.36.76.43,1.62.66,2.42.65,2.28,2.48,3.98,4.18,5.63,7.27,7.05,13.62,15.45,16.24,25.23,1.22,4.57,1.6,9.32,1.67,14.05.19,13.61-2.19,27.1-4.56,40.5,4.63-10.02,7.86-20.68,9.59-31.58.4,8.7-.07,17.44-1.39,26.06,2.1-1.43,2.73-4.2,3.09-6.71,3.61-25.39-4.21-51.16-15.56-74.17-2.16-4.39-4.47-8.72-7.29-12.72-3.14-4.44-6.89-8.41-10.63-12.37-3.93-4.15-7.85-8.31-11.78-12.46-3.18-3.36-6.41-6.77-10.37-9.16s-8.8-3.7-13.27-2.5c-3.48.93-6.4,3.27-9.06,5.71-15.78,14.45-26.13,34.69-28.62,55.94-.8,6.84-.68,14.24,3.15,19.96,4.55,6.81,13.28,9.67,18.48,15.99,4.31,5.23,5.74,12.35,5.44,19.12s-2.17,13.36-3.81,19.94c-.37,1.48-.26,3.68,1.27,3.8,1.22.09,1.89-1.37,2.21-2.56,2.3-8.74,4.61-17.64,4.27-26.67-.34-9.03-3.73-18.38-10.93-23.85-4.61-3.5-10.7-5.44-13.69-10.39-2.99-4.95-1.86-11.23-.96-16.95.8-5.08.6-10.38,1.5-15.4s4-9.4,6.51-13.46c5.89-9.51,13.34-18.07,21.97-25.18Z"/><path class="cls-32" d="M1490.98,583.4c-1.77-.4-2.77-2.4-1.77-3.4s3-2,5-2c2,1,3,2,1,4-2-3-3,5-5.07.35"/><path class="cls-32" d="M1214.9,615.33c-3.42.18-4.46,2.11-4.49,5.04,2.03.06,5.06,1.12,6.12-1.76.03-1.95-.98-2.96-2.72-2.96"/></g><g id="neck"><path class="cls-19" d="M504.23,1041.86c7.98,13.45,21.49,22.02,31.68,33.61,6.79,7.72,12.14,16.65,19.45,23.86,10.47,10.47,25.2,18.44,37.75,26.27,17.52,10.63,35.61,20.48,55.35,26.2,9.79,2.96,19.8,5.22,29.86,7.3,10.08,1.95,20.13,4.64,30.05,3.08,9.98-1.55,19.77-5.13,29.35-8.36,48.75-17.02,90.62-48.11,130.77-79.84,16.26-12.62,32.44-25.37,49.18-37.36-13.97,10.63-34.33,27.27-48.23,38.55-39.78,32.55-81.73,64.14-130.73,81.39-9.85,3.37-19.54,7.01-29.94,8.55-10.43,1.57-20.91-1.2-31.03-3.24-10.09-2.13-20.17-4.45-30.07-7.49-19.9-5.84-38.28-15.89-55.74-26.87-12.57-8.09-27.25-16.26-37.75-27.02-7.32-7.36-12.48-16.43-19.11-24.31-9.91-11.74-23.31-20.65-30.85-34.32h0Z"/><path class="cls-49" d="M843.37,1098.94c8.14-7.87,18.68-12.85,28.86-17.45,30.42-10.69,64.32-21.58,92.68-36.71,30.01-15,54.95-37.76,84.52-53.65,10.45-4.44,21.4-7.87,32.54-9.13-10.61,3.62-20.48,8.58-29.75,14.44-29.32,15.81-54.56,38.72-84.53,53.66-29.69,15.78-61.91,25.82-93.41,37.1-10.71,2.92-21.29,5.92-30.91,11.74h0Z"/></g></svg>