<?xml version="1.0" encoding="UTF-8"?><svg id="Layer_1" xmlns="http://www.w3.org/2000/svg" viewBox="0 0 647.66 101.71"><path d="M76.28,62.82h-34.4v24.68c0,11.97,11.22,11.97,12.71,11.97v1.5H0v-1.5c1.5,0,12.71-.75,12.71-11.97V13.46C12.71,1.5,1.5,1.5,0,1.5V0h76.28c23.93,0,35.9,15.71,35.9,31.41s-11.22,31.41-35.9,31.41ZM62.82,6.73h-20.94v49.36h20.94c15.71,0,23.18-11.22,23.18-24.68,0-12.71-7.48-24.68-23.18-24.68ZM213.89,101.71l-47.12-38.89v24.68c0,11.97,11.22,11.97,12.71,11.97v1.5h-54.59v-1.5c1.5,0,12.71-.75,12.71-11.97V13.46c0-11.97-11.22-11.97-12.71-11.97V0h76.28c23.93,0,35.9,15.71,35.9,31.41s-11.22,31.41-35.9,31.41h-23.18c5.24,5.24,16.45,7.48,26.18,7.48,4.49,0,8.97-.75,12.71-1.5l38.89,31.41v1.5s-41.88,0-41.88,0ZM187.72,6.73h-21.69v49.36h21.69c15.71,0,23.18-11.22,23.18-24.68,0-12.71-7.48-24.68-23.18-24.68ZM339.53,101.71v-1.5c5.24,0,7.48-1.5,7.48-5.24,0-1.5-.75-3.74-1.5-5.98l-10.47-17.2h-42.63l-7.48,14.96c-.75,2.24-1.5,4.49-1.5,6.73,0,3.74,1.5,5.98,5.98,5.98v1.5h-26.18v-1.5c5.98,0,10.47-4.49,14.21-11.97l31.41-62.82-8.97-14.21c-4.49-7.48-8.97-8.97-14.21-8.97V0h41.88l50.86,89c2.99,5.24,6.73,11.22,13.46,11.22v1.5s-52.35,0-52.35,0ZM312.61,32.16l-16.45,32.16h35.15l-18.7-32.16ZM462.18,101.71h-59.83v-1.5c1.5,0,12.71-.75,12.71-11.97V14.21c0-11.97-11.22-11.97-12.71-11.97V.75h59.83c26.92,0,54.59,17.2,54.59,50.86.75,32.91-27.67,50.11-54.59,50.11ZM483.12,32.16c0-18.7-11.97-25.43-24.68-25.43h-14.21v88.25h14.21c12.71,0,24.68-6.73,24.68-25.43v-37.39ZM595.3,101.71v-1.5c5.24,0,7.48-1.5,7.48-5.24,0-1.5-.75-3.74-1.5-5.98l-9.72-17.2h-42.63l-7.48,14.96c-.75,2.24-1.5,4.49-1.5,6.73,0,3.74,1.5,5.98,5.98,5.98v1.5h-26.18v-1.5c5.98,0,10.47-4.49,14.21-11.97l31.41-62.82-8.97-14.21c-4.49-7.48-8.97-8.97-14.21-8.97V0h41.13l50.86,89c2.99,5.24,6.73,11.22,13.46,11.22v1.5s-52.35,0-52.35,0ZM568.38,32.16l-16.45,32.91h35.15l-18.7-32.91Z"/></svg>